<?xml version="1.0" encoding="UTF-8" standalone="no"?>
<svg
   version="1.2"
   viewBox="0 0 600 500"
   id="svg257"
   sodipodi:docname="comparison.svg"
   inkscape:version="1.2.2 (b0a8486541, 2022-12-01)"
   width="600"
   height="500"
   xmlns:inkscape="http://www.inkscape.org/namespaces/inkscape"
   xmlns:sodipodi="http://sodipodi.sourceforge.net/DTD/sodipodi-0.dtd"
   xmlns="http://www.w3.org/2000/svg"
   xmlns:svg="http://www.w3.org/2000/svg"
   xmlns:rdf="http://www.w3.org/1999/02/22-rdf-syntax-ns#"
   xmlns:cc="http://creativecommons.org/ns#"
   xmlns:dc="http://purl.org/dc/elements/1.1/">
  <defs
     id="defs261" />
  <sodipodi:namedview
     id="namedview259"
     pagecolor="#ffffff"
     bordercolor="#000000"
     borderopacity="0.25"
     inkscape:showpageshadow="2"
     inkscape:pageopacity="0.0"
     inkscape:pagecheckerboard="0"
     inkscape:deskcolor="#d1d1d1"
     showgrid="false"
     inkscape:zoom="2.054"
     inkscape:cx="222.24927"
     inkscape:cy="255.11198"
     inkscape:window-width="3440"
     inkscape:window-height="1380"
     inkscape:window-x="0"
     inkscape:window-y="0"
     inkscape:window-maximized="1"
     inkscape:current-layer="svg257" />
  <title
     id="title2">pyqtgraph SVG export</title>
  <desc
     id="desc4">Generated with Qt and pyqtgraph</desc>
  <style
     id="style6">image {
        image-rendering: crisp-edges;
        image-rendering: -moz-crisp-edges;
        image-rendering: pixelated;
    }</style>
  <rect
     style="fill:#ffffff;fill-opacity:1;stroke-width:4.38215"
     id="rect419"
     width="600"
     height="500"
     x="0"
     y="0" />
  <g
     fill="none"
     fill-rule="evenodd"
     stroke="#000000"
     stroke-linecap="square"
     stroke-linejoin="bevel"
     id="g253">
    <g
       fill="none"
       fill-rule="evenodd"
       stroke-linecap="square"
       stroke-linejoin="bevel"
       id="g251">
      <g
         fill-rule="evenodd"
         stroke="#000000"
         stroke-linecap="square"
         stroke-linejoin="bevel"
         id="g245">
        <g
           fill="none"
           font-family="Ubuntu"
           font-size="12px"
           font-weight="400"
           stroke="none"
           id="g10">
          <path
             d="m 31.469,10 h 558.53 V 470 H 31.469 V 10"
             fill-rule="evenodd"
             id="path8" />
        </g>
        <clipPath
           id="ViewBox_1_clip">
          <path
             d="m 31.469,10 h 558.53 V 470 H 31.469 V 10"
             fill-rule="evenodd"
             id="path12" />
        </clipPath>
        <g
           clip-path="url(#ViewBox_1_clip)"
           id="g135">
          <g
             fill="none"
             fill-rule="evenodd"
             stroke="#000000"
             stroke-linecap="square"
             stroke-linejoin="bevel"
             id="g133">
            <g
               fill="none"
               fill-rule="evenodd"
               stroke="#000000"
               stroke-linecap="square"
               stroke-linejoin="bevel"
               id="g19">
              <g
                 fill="none"
                 font-family="Ubuntu"
                 font-size="12px"
                 font-weight="400"
                 stroke="#0071bc"
                 stroke-linecap="square"
                 stroke-linejoin="bevel"
                 stroke-width="2"
                 id="g17">
                <path
                   d="m 47.472,433.24 h 0.52711 0.52711 0.52711 0.52711 0.52711 0.52652 0.52711 0.52711 0.52711 0.52711 0.52711 0.52711 0.52711 0.52711 0.52711 0.52652 0.52711 0.52711 0.52711 0.52711 0.52711 0.52711 0.52711 0.52711 0.52711 0.52652 0.52711 0.52711 0.52711 0.52711 0.52711 0.52711 0.52711 0.52711 0.52711 0.52652 0.52711 0.52711 0.52711 0.52711 0.52711 0.52711 0.52711 0.52711 0.52711 0.52652 0.52711 0.52711 0.52711 0.52711 0.52711 0.52711 0.52711 0.52711 0.52711 0.52652 0.52711 0.52711 0.52711 0.52711 0.52711 0.52711 0.52711 0.52711 0.52711 0.52652 0.52711 0.52711 0.52711 0.52711 0.52711 0.52711 0.52711 0.52711 0.52711 0.52652 0.52711 0.52711 0.52711 0.52711 0.52711 0.52711 0.52711 0.52711 0.52711 0.52652 0.52711 0.52711 0.52711 0.52711 0.52711 0.52711 0.52711 0.52711 0.52711 0.52652 0.52711 0.52711 0.52711 0.52711 0.52711 0.52711 0.52711 0.52711 0.52711 0.52652 0.52711 0.52711 0.52711 0.52711 0.52711 0.52711 0.52711 0.52711 0.52711 0.52711 0.52652 0.52711 0.52711 0.52711 0.52711 0.52711 0.52711 0.52711 0.52711 0.52711 0.52652 0.52711 0.52711 0.52711 0.52711 0.52711 0.52711 0.52711 0.52711 0.52711 0.52652 0.52711 0.52711 0.52711 0.52711 0.52711 0.52711 0.52711 0.52711 0.52711 0.52652 0.52711 0.52711 0.52711 0.52711 0.52711 0.52711 0.52711 0.52711 0.52711 0.52652 0.52711 0.52711 0.52711 0.52711 0.52711 0.52711 0.52711 0.52711 0.52711 0.52652 0.52711 0.52711 0.52711 0.52711 0.52711 0.52711 0.52711 0.52711 0.52711 0.52652 0.52711 0.52711 0.52711 0.52711 0.52711 0.52711 0.52711 0.52711 0.52711 0.52652 0.52711 0.52711 0.52711 0.52711 0.52711 0.52711 0.52711 0.52711 0.52711 0.52652 0.52711 0.52711 0.52711 0.52711 0.52711 0.52711 0.52711 0.52711 0.52711 0.52652 0.52711 0.52711 0.52711 0.52711 0.52711 0.52711 0.52711 0.52711 0.52711 0.52652 0.52711 0.52711 0.52711 0.52711 0.52711 l 1.0542,-2.1889 1.5813,-3.2833 0.52652,-1.0944 3.1627,-6.5666 1.5813,-3.2833 0.52652,-1.0944 3.1627,-6.5666 0.52711,-1.0945 0.52711,-1.0943 0.52711,-1.0946 0.52652,-1.0943 0.52711,-1.0946 0.52711,-1.0943 0.52711,-1.0946 0.52711,-1.0943 0.52711,-1.0946 0.52711,-1.0943 0.52711,-1.0946 0.52711,-1.0943 0.52711,-1.0946 0.52652,-1.0943 0.52711,-1.0946 0.52711,-1.0943 0.52711,-1.0946 0.52711,-1.0943 0.52711,-1.0946 0.52711,-1.0943 0.52711,-1.0946 0.52711,-1.0943 0.52711,-1.0946 0.52652,-1.0943 0.52711,-1.0946 0.52711,-1.0943 0.52711,-1.0946 0.52711,-1.0943 0.52711,-1.0946 0.52711,-1.0943 0.52711,-1.0946 0.52711,-1.0943 0.52711,-1.0946 0.52652,-1.0943 0.52711,-1.0946 0.52711,-1.0943 0.52711,-1.0946 0.52711,-1.0943 0.52711,-1.0946 0.52711,-1.0943 0.52711,-1.0946 0.52711,-1.0943 0.52711,-1.0946 0.52652,-1.0943 0.52711,-1.0946 0.52711,-1.0943 0.52711,-1.0946 0.52711,-1.0943 0.52711,-1.0946 0.52711,-1.0943 0.52711,-1.0946 0.52711,-1.0943 0.52711,-1.0946 0.52652,-1.0943 0.52711,-1.0946 0.52711,-1.0943 0.52711,-1.0946 0.52711,-1.0943 0.52711,-1.0946 0.52711,-1.0943 0.52711,-1.0946 0.52711,-1.0943 0.52711,-1.0946 0.52652,-1.0943 0.52711,-1.0946 0.52711,-1.0943 0.52711,-1.0946 0.52711,-1.0943 0.52711,-1.0946 0.52711,-1.0943 0.52711,-1.0946 0.52711,-1.0943 0.52711,-1.0946 0.52652,-1.0943 0.52711,-1.0946 0.52711,-1.0943 0.52711,-1.0946 0.52711,-1.0943 0.52711,-1.0946 0.52711,-1.0943 0.52711,-1.0946 0.52711,-1.0943 0.52711,-1.0946 0.52652,-1.0943 0.52711,-1.0946 0.52711,-1.0943 0.52711,-1.0946 0.52711,-1.0943 0.52711,-1.0946 58.503,24.296 0.52711,-3.5021 0.52711,-3.5023 0.52711,-3.5021 0.52711,-3.5023 0.52711,-3.5021 0.52652,-3.5021 0.52711,-3.5023 0.52711,-3.5021 0.52711,-3.5023 0.52711,-3.5021 0.52711,-3.5023 1.0542,-7.0042 0.52711,-3.5023 0.52711,-3.5021 0.52652,-3.5023 1.0542,-7.0042 0.52711,-3.5023 0.52711,-3.5021 0.52711,-3.5023 0.52711,-3.5021 0.52711,-3.5023 1.0542,-7.0042 0.52652,-3.5023 0.52711,-3.5021 0.52711,-3.5023 1.0542,-7.0042 0.52711,-3.5023 0.52711,-3.5021 0.52711,-3.5023 0.52711,-3.5021 0.52711,-3.5023 0.52652,-3.5021 0.52711,-3.5021 0.52711,-3.5023 0.52711,-3.5021 0.52711,-3.5023 0.52711,-3.5021 0.52711,-3.5033 1.0542,-7.0023 0.52711,-3.5036 0.52652,-3.5011 0.52711,-3.5036 0.52711,-3.5011 0.52711,-3.5036 0.52711,-3.5011 0.52711,-3.5036 1.0542,-7.0023 0.52711,-3.5036 0.52711,-3.5011 0.52652,-1.7518 h 0.52711 0.52711 0.52711 0.52711 0.52711 0.52711 0.52711 0.52711 0.52711 0.52652 0.52711 0.52711 0.52711 0.52711 0.52711 0.52711 0.52711 0.52711 0.52711 0.52652 0.52711 0.52711 0.52711 0.52711 0.52711 0.52711 0.52711 0.52711 0.52711 0.52652 0.52711 0.52711 0.52711 0.52711 0.52711 0.52711 0.52711 0.52711 0.52711 0.52652 0.52711 0.52711 0.52711 0.52711 0.52711 0.52711 0.52711 0.52711 0.52711 0.52652 0.52711 0.52711 0.52711 0.52711 0.52711 0.52711 0.52711 0.52711 0.52711 0.52711 0.52652 0.52711 0.52711 0.52711 0.52711 0.52711 0.52711 0.52711 0.52711 0.52711 0.52652 0.52711 0.52711 0.52711 0.52711 0.52711 0.52711 0.52711 0.52711 0.52711 0.52652 0.52711 0.52711 0.52711 0.52711 0.52711 0.52711 0.52711 0.52711 0.52711 0.52652 0.52711 0.52711 0.52711 0.52711 0.52711 0.52711 0.52711 0.52711 0.52711 0.52652 0.52711 0.52711 0.52711 0.52711 0.52711 0.52711 0.52711 0.52711 0.52711 0.52652 0.52711 0.52711 0.52711 0.52711 0.52711 0.52711 0.52711 0.52711 0.52711 0.52652 0.52711 0.52711 0.52711 0.52711 0.52711 0.52711 0.52711 0.52711 0.52711 0.52652 0.52711 0.52711 0.52711 0.52711 0.52711 0.52711 0.52711 0.52711 0.52711 0.52652 0.52711 0.52711 0.52711 0.52711 0.52711 0.52711 0.52711 0.52711 0.52711 0.52652 0.52711 0.52711 0.52711 0.52711 0.52711 0.52711 0.52711 0.52711 0.52711 0.52652 0.52711 0.52711 0.52711 0.52711 0.52711 l 2.6355,12.039 0.52652,2.4078 4.744,21.67 0.52652,2.4078 2.1084,9.6311 0.52711,2.4073 2.1084,9.6311 0.52652,2.4078 0.52711,2.4078 0.52711,2.4075 3.6898,16.854 0.52652,2.4078 1.0542,4.8156 0.52711,2.4075 3.1627,14.447 0.52652,2.4078 1.5813,7.2233 0.52711,2.4075 2.6355,12.039 0.52652,2.4078 2.6355,12.039 0.52711,2.4075 1.5813,7.2233 0.52652,2.4078 3.1627,14.447 0.52711,2.4075 1.0542,4.8156 0.52652,2.4078 3.6898,16.854 0.52711,2.4075 0.52711,2.4078 0.52652,2.4078 4.2169,19.262 0.52711,2.4075 0.52652,2.4078 4.744,21.67 0.52652,2.4075 2.6355,12.039 2.6355,1.0944 0.52652,0.21889 4.744,1.97 0.52652,0.21889 4.744,1.97 0.52652,0.21889 4.744,1.97 0.52652,0.21889 4.744,1.97 0.52652,0.21889 4.744,1.97 0.52652,0.21891 4.744,1.97 0.52652,0.21889 4.744,1.97 0.52652,0.21889 4.744,1.97 0.52652,0.21889 4.744,1.97 0.52652,0.21889 4.744,1.97 0.52652,0.21889 2.6355,1.0944 0.52711,-1.3133 2.1084,-5.2533 0.52652,-1.3133 2.1084,-5.2533 2.6355,-6.5666 0.52652,-1.3133 1.0542,-2.6266 0.52711,-1.3134 0.52711,-1.3132 0.52711,-1.3135 1.0542,-2.6265 0.52711,-1.3135 0.52711,-1.3132 0.52652,-1.3135 1.0542,-2.6265 0.52711,-1.3135 0.52711,-1.3132 0.52711,-1.3135 1.0542,-2.6265 0.52711,-1.3135 0.52711,-1.3132 0.52652,-1.3135 1.0542,-2.6265 0.52711,-1.3135 0.52711,-1.3132 0.52711,-1.3135 1.0542,-2.6265 0.52711,-1.3135 0.52711,-1.3132 0.52652,-1.3135 1.0542,-2.6265 0.52711,-1.3135 0.52711,-1.3132 0.52711,-1.3135 1.0542,-2.6265 0.52711,-1.3135 0.52711,-1.3132 0.52652,-1.3135 0.52711,-1.3132 0.52711,-1.3135 1.0542,-2.6265 0.52711,-1.3135 0.52711,-1.3132 0.52711,-1.3135 1.0542,-2.6265 0.52652,-1.3135 0.52711,-1.3132 0.52711,-1.3135 1.0542,-2.6265 0.52711,-1.3135 0.52711,-1.3132 0.52711,-1.3135 1.0542,-2.6265 0.52652,-1.3135 0.52711,-1.3132 0.52711,-1.3135 1.0542,-2.6265 0.52711,-1.3135 0.52711,-1.3132 0.52711,-1.3135 1.0542,-2.6265 0.52652,-1.3135 0.52711,-1.3132 0.52711,-1.3135 1.0542,-2.6265 0.52711,-1.3135 0.52711,-1.3132 0.52711,-1.3135 0.52711,-1.3132 0.52711,-1.3135 0.52652,-1.3132 0.52711,-1.3132 0.52711,-1.3135 0.52711,-1.3132 0.52711,-1.3135 1.0542,-2.6265 0.52711,-1.3135 0.52711,-1.3132 0.52711,-1.3135 0.52652,-1.3132 0.52711,-1.3132 0.52711,-1.3135 0.52711,-1.3132 0.52711,-1.3135 0.52711,-1.3132"
                   fill-rule="evenodd"
                   id="path15" />
              </g>
            </g>
            <g
               fill="none"
               fill-rule="evenodd"
               stroke="#000000"
               stroke-linecap="square"
               stroke-linejoin="bevel"
               id="g25">
              <g
                 fill="none"
                 font-family="Ubuntu"
                 font-size="12px"
                 font-weight="400"
                 stroke="#d85218"
                 stroke-linecap="square"
                 stroke-linejoin="bevel"
                 stroke-width="2"
                 id="g23">
                <path
                   d="m 47.472,433.24 h 0.52711 0.52711 0.52711 0.52711 0.52711 0.52652 0.52711 0.52711 0.52711 0.52711 0.52711 0.52711 0.52711 0.52711 0.52711 0.52652 0.52711 0.52711 0.52711 0.52711 0.52711 0.52711 0.52711 0.52711 0.52711 0.52652 0.52711 0.52711 0.52711 0.52711 0.52711 0.52711 0.52711 0.52711 0.52711 0.52652 0.52711 0.52711 0.52711 0.52711 0.52711 0.52711 0.52711 0.52711 0.52711 0.52652 0.52711 0.52711 0.52711 0.52711 0.52711 0.52711 0.52711 0.52711 0.52711 0.52652 0.52711 0.52711 0.52711 0.52711 0.52711 0.52711 0.52711 0.52711 0.52711 0.52652 0.52711 0.52711 0.52711 0.52711 0.52711 0.52711 0.52711 0.52711 0.52711 0.52652 0.52711 0.52711 0.52711 0.52711 0.52711 0.52711 0.52711 0.52711 0.52711 0.52652 0.52711 0.52711 0.52711 0.52711 0.52711 0.52711 0.52711 0.52711 0.52711 0.52652 0.52711 0.52711 0.52711 0.52711 0.52711 0.52711 0.52711 0.52711 0.52711 0.52652 0.52711 0.52711 0.52711 0.52711 0.52711 0.52711 0.52711 0.52711 0.52711 0.52711 0.52652 0.52711 0.52711 0.52711 0.52711 0.52711 0.52711 0.52711 0.52711 0.52711 0.52652 0.52711 0.52711 0.52711 0.52711 0.52711 0.52711 0.52711 0.52711 0.52711 0.52652 0.52711 0.52711 0.52711 0.52711 0.52711 0.52711 0.52711 0.52711 0.52711 0.52652 0.52711 0.52711 0.52711 0.52711 0.52711 0.52711 0.52711 0.52711 0.52711 0.52652 0.52711 0.52711 0.52711 0.52711 0.52711 0.52711 0.52711 0.52711 0.52711 0.52652 0.52711 0.52711 0.52711 0.52711 0.52711 0.52711 0.52711 0.52711 0.52711 0.52652 0.52711 0.52711 0.52711 0.52711 0.52711 0.52711 0.52711 0.52711 0.52711 0.52652 0.52711 0.52711 0.52711 0.52711 0.52711 0.52711 0.52711 0.52711 0.52711 0.52652 0.52711 0.52711 0.52711 0.52711 0.52711 0.52711 0.52711 0.52711 0.52711 0.52652 0.52711 0.52711 0.52711 0.52711 0.52711 0.52711 0.52711 0.52711 0.52711 0.52652 0.52711 0.52711 0.52711 0.52711 0.52711 l 0.52711,-0.0279 0.52711,-0.083 0.52711,-0.13716 0.52711,-0.19032 0.52711,-0.2425 0.52652,-0.29369 0.52711,-0.3439 0.52711,-0.39312 0.52711,-0.44137 0.52711,-0.48863 0.52711,-0.53489 0.52711,-0.5802 0.52711,-0.62449 0.52711,-0.66781 0.52711,-0.71016 0.52652,-0.75154 0.52711,-0.7919 0.52711,-0.83128 0.52711,-0.86969 0.52711,-0.90711 0.52711,-0.94355 0.52711,-0.979 0.52711,-1.0135 0.52711,-1.047 0.52711,-1.0795 0.52652,-1.111 0.52711,-1.1415 0.52711,-1.1711 0.52711,-1.1997 0.52711,-1.2272 0.52711,-1.2539 0.52711,-1.2795 0.52711,-1.3042 0.52711,-1.3278 0.52711,-1.3504 0.52652,-1.372 0.52711,-1.3929 0.52711,-1.4126 0.52711,-1.4311 0.52711,-1.449 0.52711,-1.4658 0.52711,-1.4816 0.52711,-1.4964 0.52711,-1.5103 0.52711,-1.5231 0.52652,-1.5348 0.52711,-1.5457 0.52711,-1.5557 0.52711,-1.5645 0.52711,-1.5725 0.52711,-1.5795 0.52711,-1.5853 0.52711,-1.5902 0.52711,-1.5943 0.52711,-1.5973 0.52652,-1.5994 0.52711,-1.6002 0.52711,-1.6004 0.52711,-1.5994 0.52711,-1.5977 0.52711,-1.5946 0.52711,-1.5907 0.52711,-1.5858 0.52711,-1.5802 0.52711,-1.5732 0.52652,-1.5652 0.52711,-1.5567 0.52711,-1.5467 0.52711,-1.536 0.52711,-1.5244 0.52711,-1.5115 0.52711,-1.4979 0.52711,-1.4831 0.52711,-1.4675 0.52711,-1.4507 0.52652,-1.433 0.52711,-1.4145 0.52711,-1.3949 0.52711,-1.3742 0.52711,-1.3526 0.52711,-1.33 0.52711,-1.3067 0.52711,-1.2819 0.52711,-1.2564 0.52711,-1.2301 0.52652,-1.2024 0.52711,-1.174 0.52711,-1.1444 0.52711,-1.1142 0.52711,-1.0827 0.52711,-1.0501 0.52711,-1.0171 0.52711,-0.98231 0.52711,-0.94708 0.52711,-0.91088 0.52652,-0.87346 0.52711,-0.83531 0.52711,-0.79571 0.52711,-0.75562 0.52711,-0.71432 0.52711,-0.67204 0.52711,-0.62879 0.52711,-0.58482 0.52711,-0.53938 0.52711,-0.49322 0.52652,-0.44633 0.52711,-0.39798 0.52711,-0.34865 0.52711,-0.29885 0.52711,-0.24758 0.52711,-0.19559 0.52711,-0.15453 0.52711,-0.12586 0.52711,-0.0979 0.52711,-0.07 0.52711,-0.0433 0.52652,-0.017 0.52711,0.009 0.52711,0.034 0.52711,0.0583 0.52711,0.0826 0.52711,0.10569 0.52711,0.12853 0.52711,0.1504 0.52711,0.17202 0.52711,0.19316 0.52652,0.21308 0.52711,0.233 0.52711,0.25195 0.52711,0.27066 0.52711,0.2884 0.52711,0.30565 0.52711,0.32217 0.52711,0.33845 0.52711,0.35376 0.52711,0.36882 0.52652,0.38291 0.52711,0.39652 0.52711,0.40964 0.52711,0.42203 0.52711,0.43394 0.52711,0.44511 0.52711,0.45556 0.52711,0.46576 0.52711,0.47524 0.52711,0.48399 0.52652,0.492 0.52711,0.49978 0.52711,0.50682 0.52711,0.51314 0.52711,0.51897 0.52711,0.52408 0.52711,0.52845 0.52711,0.53282 0.52711,0.53598 0.52711,0.53865 0.52652,0.54108 0.52711,0.5423 0.52711,0.54351 0.52711,0.54376 0.52711,0.54351 0.52711,0.54254 0.52711,0.54108 0.52711,0.53914 0.52711,0.53647 0.52711,0.53307 0.52652,0.52918 0.52711,0.5248 0.52711,0.5197 0.52711,0.51387 0.52711,0.50755 0.52711,0.50075 0.52711,0.49322 0.52711,0.4852 0.52711,0.47621 0.52711,0.46698 0.52652,0.45726 0.52711,0.44633 0.52711,0.43539 0.52711,0.42373 0.52711,0.41134 0.52711,0.39822 0.52711,0.38486 0.52711,0.37052 0.52711,0.35594 0.52711,0.34039 0.52652,0.3246 0.52711,0.30784 0.52711,0.29083 0.52711,0.27285 0.52711,0.25438 0.52711,0.23568 0.52711,0.21575 0.52711,0.19583 0.52711,0.17469 0.52711,0.15355 0.52652,0.13144 0.52711,0.10885 0.52711,0.0855 0.52711,0.0617 0.52711,0.0372 0.52711,0.0121 0.52711,-0.0134 0.52711,-0.0396 0.52711,-0.0666 0.52711,-0.094 0.52652,-0.12221 0.52711,-0.15064 0.52711,-0.18004 0.52711,-0.20992 0.52711,-0.24054 0.52711,-0.27139 0.52711,-0.30322 0.52711,-0.33553 0.52711,-0.36858 0.52711,-0.40186 0.52652,-0.43612 0.52711,-0.47062 0.52711,-0.50634 0.52711,-0.54181 0.52711,-0.57874 0.52711,-0.61567 0.52711,-0.79887 0.52711,-1.1193 0.52711,-1.4274 0.52711,-1.7231 0.52711,-2.0064 0.52652,-2.2771 0.52711,-2.5356 0.52711,-2.7817 0.52711,-3.0152 0.52711,-3.2365 0.52711,-3.4452 0.52711,-3.6418 0.52711,-3.8257 0.52711,-3.9973 0.52711,-4.1564 0.52652,-4.3032 0.52711,-4.4378 0.52711,-4.5595 0.52711,-4.6691 0.52711,-4.7662 0.52711,-4.851 0.52711,-4.9232 0.52711,-4.9832 0.52711,-5.0306 0.52711,-5.0658 0.52652,-5.0884 0.52711,-5.0989 0.52711,-5.0964 0.52711,-5.0821 0.52711,-5.0554 0.52711,-5.0158 0.52711,-4.964 0.52711,-4.8999 0.52711,-4.8233 0.52711,-4.7342 0.52652,-4.6331 0.52711,-4.5194 0.52711,-4.3928 0.52711,-4.2543 0.52711,-4.1037 0.52711,-3.9385 0.52711,-3.766 0.52711,-3.574 0.52711,-3.3748 0.52711,-3.1634 0.52652,-2.9374 0.52711,-2.6969 0.52711,-2.4491 0.52711,-2.1867 0.52711,-1.9097 0.52711,-1.623 0.52711,-1.3242 0.52711,-1.0107 0.52711,-0.68516 0.52711,-0.34987 0.52652,-0.0437 h 0.52711 0.52711 0.52711 0.52711 0.52711 0.52711 0.52711 0.52711 0.52711 0.52652 0.52711 0.52711 0.52711 0.52711 0.52711 0.52711 0.52711 0.52711 0.52711 0.52652 0.52711 0.52711 0.52711 0.52711 0.52711 0.52711 0.52711 0.52711 0.52711 0.52652 0.52711 0.52711 0.52711 0.52711 0.52711 0.52711 0.52711 0.52711 0.52711 0.52652 0.52711 0.52711 0.52711 0.52711 0.52711 0.52711 0.52711 0.52711 0.52711 0.52652 0.52711 0.52711 0.52711 0.52711 0.52711 0.52711 0.52711 0.52711 0.52711 0.52711 0.52652 0.52711 0.52711 0.52711 0.52711 0.52711 0.52711 0.52711 0.52711 0.52711 0.52652 0.52711 0.52711 0.52711 0.52711 0.52711 0.52711 0.52711 0.52711 0.52711 0.52652 0.52711 0.52711 0.52711 0.52711 0.52711 0.52711 0.52711 0.52711 0.52711 0.52652 0.52711 0.52711 0.52711 0.52711 0.52711 0.52711 0.52711 0.52711 0.52711 0.52652 0.52711 0.52711 0.52711 0.52711 0.52711 0.52711 0.52711 0.52711 0.52711 0.52652 0.52711 0.52711 0.52711 0.52711 0.52711 0.52711 0.52711 0.52711 0.52711 0.52652 0.52711 0.52711 0.52711 0.52711 0.52711 0.52711 0.52711 0.52711 0.52711 0.52652 0.52711 0.52711 0.52711 0.52711 0.52711 0.52711 0.52711 0.52711 0.52711 0.52652 0.52711 0.52711 0.52711 0.52711 0.52711 0.52711 0.52711 0.52711 0.52711 0.52652 0.52711 0.52711 0.52711 0.52711 0.52711 0.52711 0.52711 0.52711 0.52711 0.52652 0.52711 0.52711 0.52711 0.52711 0.52711 l 0.52711,0.0583 0.52711,0.17736 0.52711,0.29156 0.52711,0.40575 0.52711,0.51509 0.52652,0.62442 0.52711,0.73132 0.52711,0.8358 0.52711,0.94027 0.52711,1.0399 0.52711,1.1395 0.52711,1.2343 0.52711,1.3314 0.52711,1.4213 0.52711,1.5137 0.52652,1.6011 0.52711,1.6886 0.52711,1.7736 0.52711,1.8538 0.52711,1.934 0.52711,2.0142 0.52711,2.0895 0.52711,2.1648 0.52711,2.2353 0.52711,2.3057 0.52652,2.3738 0.52711,2.4394 0.52711,2.5025 0.52711,2.5657 0.52711,2.6265 0.52711,2.6823 0.52711,2.7387 0.52711,2.7922 0.52711,2.8439 0.52711,2.8935 0.52652,2.9406 0.52711,2.9863 0.52711,3.0298 0.52711,3.0708 0.52711,3.1104 0.52711,3.1474 0.52711,3.1828 0.52711,3.2156 0.52711,3.247 0.52711,3.2759 0.52652,3.3029 0.52711,3.3279 0.52711,3.3507 0.52711,3.3716 0.52711,3.3903 0.52711,3.4071 0.52711,3.4217 0.52711,3.4346 0.52711,3.445 0.52711,3.4535 0.52652,3.4601 0.52711,3.4644 0.52711,3.4669 0.52711,3.4671 0.52711,3.4654 0.52711,3.4618 0.52711,3.4559 0.52711,3.4479 0.52711,3.4382 0.52711,3.426 0.52652,3.4122 0.52711,3.3962 0.52711,3.3779 0.52711,3.3578 0.52711,3.3354 0.52711,3.3114 0.52711,3.2851 0.52711,3.2567 0.52711,3.2261 0.52711,3.1938 0.52652,3.1593 0.52711,3.1228 0.52711,3.084 0.52711,3.0434 0.52711,3.0009 0.52711,2.9559 0.52711,2.9093 0.52711,2.8602 0.52711,2.8094 0.52711,2.7564 0.52652,2.7013 0.52711,2.6444 0.52711,2.5851 0.52711,2.5242 0.52711,2.461 0.52711,2.3954 0.52711,2.3283 0.52711,2.2591 0.52711,2.1874 0.52711,2.114 0.52652,2.0387 0.52711,1.961 0.52711,1.8813 0.52711,1.7999 0.52711,1.7161 0.52711,1.6303 0.52711,1.5423 0.52711,1.4527 0.52711,1.3606 0.52711,1.2668 0.52652,1.1708 0.52711,1.0727 0.52711,0.97259 0.52711,0.8703 0.52711,0.76631 0.52711,0.65989 0.52711,0.6034 0.52711,0.59791 0.52711,0.59237 0.52711,0.58678 0.52711,0.58117 0.52652,0.57549 0.52711,0.56978 0.52711,0.56404 0.52711,0.55826 0.52711,0.55241 0.52711,0.54655 0.52711,0.54065 0.52711,0.53469 0.52711,0.52867 0.52711,0.52267 0.52652,0.51659 0.52711,0.51045 0.52711,0.50432 0.52711,0.4981 0.52711,0.49186 0.52711,0.48559 0.52711,0.47927 0.52711,0.47291 0.52711,0.46649 0.52711,0.46005 0.52652,0.45357 0.52711,0.44703 0.52711,0.44047 0.52711,0.43389 0.52711,0.42721 0.52711,0.42052 0.52711,0.41379 0.52711,0.40701 0.52711,0.40021 0.52711,0.39336 0.52652,0.38644 0.52711,0.37954 0.52711,0.37254 0.52711,0.36552 0.52711,0.35847 0.52711,0.35135 0.52711,0.34423 0.52711,0.33704 0.52711,0.3298 0.52711,0.32256 0.52652,0.31525 0.52711,0.30789 0.52711,0.30051 0.52711,0.29308 0.52711,0.28561 0.52711,0.2781 0.52711,0.27055 0.52711,0.26296 0.52711,0.25532 0.52711,0.24765 0.52652,0.23993 0.52711,0.23218 0.52711,0.22438 0.52711,0.21654 0.52711,0.20866 0.52711,0.20074 0.52711,0.19278 0.52711,0.18477 0.52711,0.17673 0.52711,0.16865 0.52652,0.16052 0.52711,0.15235 0.52711,0.14415 0.52711,0.1359 0.52711,0.12761 0.52711,0.11927 0.52711,0.11091 0.52711,0.10251 0.52711,0.094 0.52711,0.0856 0.52652,0.077 0.52711,0.0684 0.52711,0.0598 0.52711,0.0512 0.52711,0.0425 0.52711,0.0337 0.52711,0.0249 0.52711,0.0161 0.52711,0.007 0.52711,-0.002 0.52652,-0.0106 0.52711,-0.0196 0.52711,-0.0286 0.52711,-0.0377 0.52711,-0.0468 0.52711,-0.056 0.52711,-0.0651 0.52711,-0.0744 0.52711,-0.0836 0.52711,-0.093 0.52652,-0.10231 0.52711,-0.11172 0.52711,-0.12114 0.52711,-0.13061 0.52711,-0.14014 0.52711,-0.1497 0.52711,-0.1593 0.52711,-0.16895 0.52711,-0.17863 0.52711,-0.18836 0.52652,-0.19812 0.52711,-0.20793 0.52711,-0.21777 0.52711,-0.22766 0.52711,-0.23759 0.52711,-0.24756 0.52711,-0.29044 0.52711,-0.36483 0.52711,-0.43715 0.52711,-0.5074 0.52711,-0.57559 0.52652,-0.6417 0.52711,-0.70576 0.52711,-0.76775 0.52711,-0.82768 0.52711,-0.88551 0.52711,-0.94132 0.52711,-0.99504 0.52711,-1.0467 0.52711,-1.0963 0.52711,-1.1438 0.52652,-1.1893 0.52711,-1.2326 0.52711,-1.274 0.52711,-1.3133 0.52711,-1.3504 0.52711,-1.3856 0.52711,-1.4186 0.52711,-1.4496 0.52711,-1.4785 0.52711,-1.5054 0.52652,-1.5302 0.52711,-1.553 0.52711,-1.5734 0.52711,-1.5921 0.52711,-1.6087 0.52711,-1.6232 0.52711,-1.6356 0.52711,-1.6458 0.52711,-1.6541 0.52711,-1.6604 0.52652,-1.6646 0.52711,-1.6665 0.52711,-1.6667 0.52711,-1.6643 0.52711,-1.6604 0.52711,-1.6541 0.52711,-1.6461 0.52711,-1.6354 0.52711,-1.6232 0.52711,-1.6087 0.52652,-1.5921 0.52711,-1.5737 0.52711,-1.553 0.52711,-1.5302 0.52711,-1.5052 0.52711,-1.4787 0.52711,-1.4495 0.52711,-1.4187 0.52711,-1.3856 0.52711,-1.3504 0.52652,-1.3181 0.52711,-1.3132 0.52711,-1.3135 1.0542,-2.6265 0.52711,-1.3135 0.52711,-1.3132 0.52711,-1.3135 1.0542,-2.6265 0.52652,-1.3135 0.52711,-1.3132 0.52711,-1.3135 1.0542,-2.6265 0.52711,-1.3135 0.52711,-1.3132 0.52711,-1.3135 1.0542,-2.6265 0.52652,-1.3135 0.52711,-1.3132 0.52711,-1.3135 1.0542,-2.6265 0.52711,-1.3135 0.52711,-1.3132 0.52711,-1.3135 1.0542,-2.6265 0.52652,-1.3135 0.52711,-1.3132 0.52711,-1.3135 1.0542,-2.6265 0.52711,-1.3135 0.52711,-1.3132 0.52711,-1.3135 0.52711,-1.3132 0.52711,-1.3135 0.52652,-1.3132 0.52711,-1.3132 0.52711,-1.3135 0.52711,-1.3132 0.52711,-1.3135 1.0542,-2.6265 0.52711,-1.3135 0.52711,-1.3132 0.52711,-1.3135 0.52652,-1.3132 0.52711,-1.3132 0.52711,-1.3135 0.52711,-1.3132 0.52711,-1.3135 0.52711,-1.3132"
                   fill-rule="evenodd"
                   id="path21" />
              </g>
            </g>
            <g
               fill="none"
               fill-rule="evenodd"
               stroke="#000000"
               stroke-linecap="square"
               stroke-linejoin="bevel"
               id="g31">
              <g
                 fill="none"
                 font-family="Ubuntu"
                 font-size="12px"
                 font-weight="400"
                 stroke="#76ab2f"
                 stroke-linecap="square"
                 stroke-linejoin="bevel"
                 stroke-width="2"
                 id="g29">
                <path
                   d="m 47.472,433.24 h 0.52711 0.52711 0.52711 0.52711 0.52711 0.52652 0.52711 0.52711 0.52711 0.52711 0.52711 0.52711 0.52711 0.52711 0.52711 0.52652 0.52711 0.52711 0.52711 0.52711 0.52711 0.52711 0.52711 0.52711 0.52711 0.52652 0.52711 0.52711 0.52711 0.52711 0.52711 0.52711 0.52711 0.52711 0.52711 0.52652 0.52711 0.52711 0.52711 0.52711 0.52711 0.52711 0.52711 0.52711 0.52711 0.52652 0.52711 0.52711 0.52711 0.52711 0.52711 0.52711 0.52711 0.52711 0.52711 0.52652 0.52711 0.52711 0.52711 0.52711 0.52711 0.52711 0.52711 0.52711 0.52711 0.52652 0.52711 0.52711 0.52711 0.52711 0.52711 0.52711 0.52711 0.52711 0.52711 0.52652 0.52711 0.52711 0.52711 0.52711 0.52711 0.52711 0.52711 0.52711 0.52711 0.52652 0.52711 0.52711 0.52711 0.52711 0.52711 0.52711 0.52711 0.52711 0.52711 0.52652 0.52711 0.52711 0.52711 0.52711 0.52711 0.52711 0.52711 0.52711 0.52711 0.52652 0.52711 0.52711 0.52711 0.52711 0.52711 0.52711 0.52711 0.52711 0.52711 0.52711 0.52652 0.52711 0.52711 0.52711 0.52711 0.52711 0.52711 0.52711 0.52711 0.52711 0.52652 0.52711 0.52711 0.52711 0.52711 0.52711 0.52711 0.52711 0.52711 0.52711 0.52652 0.52711 0.52711 0.52711 0.52711 0.52711 0.52711 0.52711 0.52711 0.52711 0.52652 0.52711 0.52711 0.52711 0.52711 0.52711 0.52711 0.52711 0.52711 0.52711 0.52652 0.52711 0.52711 0.52711 0.52711 0.52711 0.52711 0.52711 0.52711 0.52711 0.52652 0.52711 0.52711 0.52711 0.52711 0.52711 0.52711 0.52711 0.52711 0.52711 0.52652 0.52711 0.52711 0.52711 0.52711 0.52711 0.52711 0.52711 0.52711 0.52711 0.52652 0.52711 0.52711 0.52711 0.52711 0.52711 0.52711 0.52711 0.52711 0.52711 0.52652 0.52711 0.52711 0.52711 0.52711 0.52711 0.52711 0.52711 0.52711 0.52711 0.52652 0.52711 0.52711 0.52711 0.52711 0.52711 0.52711 0.52711 0.52711 0.52711 0.52652 0.52711 0.52711 0.52711 0.52711 0.52711 l 0.52711,-0.0224 0.52711,-0.0667 0.52711,-0.1103 0.52711,-0.15324 0.52711,-0.19549 0.52652,-0.23706 0.52711,-0.27795 0.52711,-0.31816 0.52711,-0.35768 0.52711,-0.39652 0.52711,-0.43468 0.52711,-0.47215 0.52711,-0.50894 0.52711,-0.54504 0.52711,-0.58047 0.52652,-0.61521 0.52711,-0.64928 0.52711,-0.68266 0.52711,-0.71534 0.52711,-0.74736 0.52711,-0.77868 0.52711,-0.80934 0.52711,-0.8393 0.52711,-0.86858 0.52711,-0.89715 0.52652,-0.92509 0.52711,-0.95233 0.52711,-0.97886 0.52711,-1.0047 0.52711,-1.0299 0.52711,-1.0544 0.52711,-1.0782 0.52711,-1.1014 0.52711,-1.1238 0.52711,-1.1456 0.52652,-1.1667 0.52711,-1.187 0.52711,-1.2068 0.52711,-1.2258 0.52711,-1.2442 0.52711,-1.262 0.52711,-1.2787 0.52711,-1.2952 0.52711,-1.3108 0.52711,-1.3256 0.52652,-1.34 0.52711,-1.3536 0.52711,-1.3664 0.52711,-1.3786 0.52711,-1.3902 0.52711,-1.4009 0.52711,-1.4111 0.52711,-1.4206 0.52711,-1.4294 0.52711,-1.4376 0.52652,-1.4449 0.52711,-1.4517 0.52711,-1.4578 0.52711,-1.4631 0.52711,-1.468 0.52711,-1.4719 0.52711,-1.475 0.52711,-1.478 0.52711,-1.4799 0.52711,-1.4811 0.52652,-1.4816 0.52711,-1.4816 0.52711,-1.4809 0.52711,-1.4794 0.52711,-1.4772 0.52711,-1.4746 0.52711,-1.4709 0.52711,-1.4668 0.52711,-1.4619 0.52711,-1.4563 0.52652,-1.45 0.52711,-1.4432 0.52711,-1.4357 0.52711,-1.4274 0.52711,-1.4184 0.52711,-1.4087 0.52711,-1.3983 0.52711,-1.3876 0.52711,-1.3757 0.52711,-1.3633 0.52652,-1.3504 0.52711,-1.3366 0.52711,-1.322 0.52711,-1.3072 0.52711,-1.2911 0.52711,-1.2748 0.52711,-1.2576 0.52711,-1.2399 0.52711,-1.2211 0.52711,-1.2019 0.52652,-1.1823 0.52711,-1.1616 0.52711,-1.1402 0.52711,-1.1184 0.52711,-1.0958 0.52711,-1.0724 0.52711,-1.0486 0.52711,-1.0239 0.52711,-0.99834 0.52711,-0.97259 0.52652,-0.94562 0.52711,-0.91841 0.52711,-0.89022 0.52711,-0.86155 0.52711,-0.83191 0.52711,-0.80203 0.52711,-0.76024 0.52711,-0.70824 0.52711,-0.65722 0.52711,-0.60693 0.52711,-0.5576 0.52652,-0.5095 0.52711,-0.46212 0.52711,-0.41571 0.52711,-0.37028 0.52711,-0.32582 0.52711,-0.28208 0.52711,-0.23956 0.52711,-0.19777 0.52711,-0.1572 0.52711,-0.11735 0.52652,-0.0785 0.52711,-0.0406 0.52711,-0.003 0.52711,0.0323 0.52711,0.0675 0.52711,0.1018 0.52711,0.13485 0.52711,0.16716 0.52711,0.1985 0.52711,0.22863 0.52652,0.25827 0.52711,0.28694 0.52711,0.31415 0.52711,0.34088 0.52711,0.36663 0.52711,0.39117 0.52711,0.41498 0.52711,0.43782 0.52711,0.45993 0.52711,0.48058 0.52652,0.50075 0.52711,0.5197 0.52711,0.53792 0.52711,0.55518 0.52711,0.57121 0.52711,0.58652 0.52711,0.60085 0.52711,0.61446 0.52711,0.62685 0.52711,0.63827 0.52652,0.64872 0.52711,0.65868 0.52711,0.66718 0.52711,0.67496 0.52711,0.68176 0.52711,0.68759 0.52711,0.69245 0.52711,0.69658 0.52711,0.6995 0.52711,0.70168 0.52652,0.7029 0.52711,0.7029 0.52711,0.70241 0.52711,0.70047 0.52711,0.69804 0.52711,0.69439 0.52711,0.68978 0.52711,0.68443 0.52711,0.67812 0.52711,0.67083 0.52652,0.66232 0.52711,0.65333 0.52711,0.64289 0.52711,0.63195 0.52711,0.62005 0.52711,0.60693 0.52711,0.59283 0.52711,0.57826 0.52711,0.56222 0.52711,0.54546 0.52652,0.52796 0.52711,0.50901 0.52711,0.48957 0.52711,0.46917 0.52711,0.44754 0.52711,0.42519 0.52711,0.40162 0.52711,0.37757 0.52711,0.3523 0.52711,0.32606 0.52652,0.29885 0.52711,0.27091 0.52711,0.24175 0.52711,0.21187 0.52711,0.18101 0.52711,0.14918 0.52711,0.11638 0.52711,0.0826 0.52711,0.0479 0.52711,0.0124 0.52652,-0.0243 0.52711,-0.0617 0.52711,-0.1001 0.52711,-0.1397 0.52711,-0.17979 0.52711,-0.2211 0.52711,-0.26337 0.52711,-0.30662 0.52711,-0.3506 0.52711,-0.39579 0.52652,-0.44147 0.52711,-0.4886 0.52711,-0.53647 0.52711,-0.5853 0.52711,-0.63511 0.52711,-0.68565 0.52711,-0.84819 0.52711,-1.115 0.52711,-1.3728 0.52711,-1.6206 0.52711,-1.8592 0.52652,-2.0883 0.52711,-2.3074 0.52711,-2.5176 0.52711,-2.718 0.52711,-2.909 0.52711,-3.0905 0.52711,-3.2623 0.52711,-3.4248 0.52711,-3.5777 0.52711,-3.721 0.52652,-3.8549 0.52711,-3.9793 0.52711,-4.094 0.52711,-4.1994 0.52711,-4.2951 0.52711,-4.3816 0.52711,-4.4582 0.52711,-4.5257 0.52711,-4.5833 0.52711,-4.6316 0.52652,-4.6703 0.52711,-4.6994 0.52711,-4.7194 0.52711,-4.7296 0.52711,-4.73 0.52711,-4.7213 0.52711,-4.7031 0.52711,-4.6751 0.52711,-4.6377 0.52711,-4.5908 0.52652,-4.5345 0.52711,-4.4686 0.52711,-4.3933 0.52711,-4.3083 0.52711,-4.2137 0.52711,-4.111 0.52711,-3.9943 0.52711,-3.8753 0.52711,-3.7392 0.52711,-3.6007 0.52652,-3.4452 0.52711,-3.2873 0.52711,-3.1148 0.52711,-2.9374 0.52711,-2.7455 0.52711,-2.5463 0.52711,-2.3398 0.52711,-2.1211 0.52711,-1.8927 0.52711,-1.6546 0.52652,-1.4384 0.52711,-1.3922 0.52711,-1.3776 0.52711,-1.3606 0.52711,-1.3436 0.52711,-1.3266 0.52711,-1.3096 0.52711,-1.2926 0.52711,-1.278 0.52711,-1.261 0.52652,-1.244 0.52711,-1.227 0.52711,-1.21 0.52711,-1.1954 0.52711,-1.1784 0.52711,-1.1589 0.52711,-1.1444 0.52711,-1.1274 0.52711,-1.1128 0.52711,-1.0933 0.52652,-1.0788 0.52711,-1.0618 0.52711,-1.0423 0.52711,-1.0277 0.52711,-1.0132 0.52711,-0.99373 0.52711,-0.97672 0.52711,-0.96214 0.52711,-0.9427 0.52711,-0.92813 0.52652,-0.91112 0.52711,-0.89411 0.52711,-0.8771 0.52711,-0.8601 0.52711,-0.84309 0.52711,-0.82851 0.52711,-0.80907 0.52711,-0.7945 0.52711,-0.777492 0.52711,-0.75805 0.52652,-0.74347 0.52711,-0.72647 0.52711,-0.709461 0.52711,-0.692449 0.52711,-0.67544 0.52711,-0.65844 0.52711,-0.64386 0.52711,-0.62442 0.52711,-0.60741 0.52711,-0.592831 0.52652,-0.5734 0.52711,-0.55882 0.52711,-0.53938 0.52711,-0.5248 0.52711,-0.5078 0.52711,-0.48836 0.52711,-0.47378 0.52711,-0.45677 0.52711,-0.43977 0.52711,-0.42033 0.52711,-0.40575 0.52652,-0.38874 0.52711,-0.37174 0.52711,-0.35473 0.52711,-0.33529 0.52711,-0.32071 0.52711,-0.30371 0.52711,-0.2867 0.52711,-0.26969 0.52711,-0.25268 0.52711,-0.23568 0.52652,-0.21624 0.52711,-0.20166 0.52711,-0.18465 0.52711,-0.16765 0.52711,-0.14821 0.52711,-0.13363 0.52711,-0.11662 0.52711,-0.09719 0.52711,-0.08261 0.52711,-0.0656 0.52652,-0.04616 0.52711,-0.02916 0.52711,-0.01458 0.52711,0.0049 0.52711,0.02187 0.52711,0.03645 0.52711,0.05588 0.52711,0.07289 0.52711,0.0899 0.52711,0.1069 0.52652,0.12391 0.52711,0.14335 0.52711,0.15793 0.52711,0.17493 0.52711,0.19437 0.52711,0.20895 0.52711,0.22839 0.52711,0.24539 0.52711,0.2624 0.52711,0.27941 0.52652,0.29642 0.52711,0.31342 0.52711,0.33043 0.52711,0.34987 0.52711,0.36445 0.52711,0.38388 0.52711,0.40089 0.52711,0.4179 0.52711,0.43491 0.52711,0.45191 0.52652,0.46892 0.52711,0.48836 0.52711,0.50537 0.52711,0.51995 0.52711,0.53938 0.52711,0.55639 0.52711,0.57583 0.52711,0.5904 0.52711,0.60984 0.52711,0.62685 0.52652,0.64386 0.52711,0.66086 0.52711,0.67787 0.52711,0.69488 0.52711,0.71432 0.52711,0.73132 0.52711,0.74833 0.52711,0.76534 0.52711,0.784773 0.52711,0.79935 0.52652,0.81879 0.52711,0.8358 0.52711,0.85281 0.52711,0.87224 0.52711,0.88925 0.52711,0.90383 0.52711,0.9257 0.52711,0.94027 0.52711,0.95971 0.52711,0.97429 0.52652,0.99373 0.52711,1.0132 0.52711,1.0277 0.52711,1.0472 0.52711,1.0642 0.52711,1.0812 0.52711,1.1006 0.52711,1.1176 0.52711,1.1346 0.52711,1.1517 0.52652,1.1687 0.52711,1.1881 0.52711,1.2051 0.52711,1.2245 0.52711,1.2391 0.52711,1.2586 0.52711,1.278 0.52711,1.2926 0.52711,1.312 0.52711,1.329 0.52652,1.346 0.52711,1.3655 0.52711,1.3825 0.52711,1.3995 0.52711,1.4189 0.52711,1.4359 0.52711,1.4748 0.52711,1.5331 0.52711,1.589 0.52711,1.6473 0.52711,1.7008 0.52652,1.7566 0.52711,1.8101 0.52711,1.8587 0.52711,1.9121 0.52711,1.9607 0.52711,2.0069 0.52711,2.0579 0.52711,2.1016 0.52711,2.1454 0.52711,2.1915 0.52652,2.2328 0.52711,2.2742 0.52711,2.313 0.52711,2.3543 0.52711,2.3908 0.52711,2.4296 0.52711,2.4637 0.52711,2.5001 0.52711,2.5312 0.52711,2.5643 0.52652,2.5956 0.52711,2.6252 0.52711,2.6544 0.52711,2.6818 0.52711,2.7083 0.52711,2.7336 0.52711,2.7581 0.52711,2.781 0.52711,2.8031 0.52711,2.8237 0.52652,2.8434 0.52711,2.8619 0.52711,2.8794 0.52711,2.8954 0.52711,2.9105 0.52711,2.9246 0.52711,2.9372 0.52711,2.9489 0.52711,2.9593 0.52711,2.9688 0.52652,2.9768 0.52711,2.9839 0.52711,2.9899 0.52711,2.9945 0.52711,2.9982 0.52711,3.0006 0.52711,3.0018 0.52711,3.0021 0.52711,3.0011 0.52711,2.9992 0.52652,2.9958 0.52711,2.9914 0.52711,2.9858 0.52711,2.979 0.52711,2.9712 0.52711,2.9622 0.52711,2.9523 0.52711,2.9408 0.52711,2.9285 0.52711,2.9149 0.52652,2.9 0.52711,2.8842 0.52711,2.8672 0.52711,2.849 0.52711,2.8298 0.52711,2.8094 0.52711,2.7878 0.52711,2.7649 0.52711,2.7411 0.52711,2.7161 0.52652,2.6899 0.52711,2.6627 0.52711,2.634 0.52711,2.6046 0.52711,2.5737 0.52711,2.5419 0.52711,2.5089 0.52711,2.4746 0.52711,2.4394 0.52711,2.4027 0.52652,2.3653 0.52711,2.3264 0.52711,2.2865 0.52711,2.2452 0.52711,2.2032 0.52711,2.16 0.52711,2.1153 0.52711,2.0698 0.52711,2.0229 0.52711,1.9748 0.52652,1.926 0.52711,1.8757 0.52711,1.8242 0.52711,1.7719 0.52711,1.718 0.52711,1.6633 0.52711,1.6072 0.52711,1.5504 0.52711,1.4918 0.52711,1.4328 0.52652,1.372 0.52711,1.3103 0.52711,1.2476 0.52711,1.1835 0.52711,1.1184 0.52711,1.0523 0.52711,1.0143 0.52711,1.0054 0.52711,0.99633 0.52711,0.98712 0.52711,0.97776 0.52652,0.96826 0.52711,0.95859 0.52711,0.9488 0.52711,0.93879 0.52711,0.92871 0.52711,0.91841 0.52711,0.90798 0.52711,0.89742 0.52711,0.88668 0.52711,0.87579 0.52652,0.86474 0.52711,0.85356 0.52711,0.84221 0.52711,0.8307 0.52711,0.81906 0.52711,0.80725 0.52711,0.7953 0.52711,0.78317 0.52711,0.7709 0.52711,0.75849 0.52652,0.74592 0.52711,0.73319 0.52711,0.72031 0.52711,0.70728 0.52711,0.6941 0.52711,0.68076 0.52711,0.66728 0.52711,0.65362 0.52711,0.63982 0.52711,0.62585 0.52652,0.61179 0.52711,0.5975 0.52711,0.58312 0.52711,0.56854 0.52711,0.55381 0.52711,0.53894 0.52711,0.52393 0.52711,0.50874 0.52711,0.49344 0.52711,0.47794 0.52652,0.46231 0.52711,0.4465 0.52711,0.43058 0.52711,0.41447 0.52711,0.39822 0.52711,0.38184 0.52711,0.36527 0.52711,0.34856 0.52711,0.3317 0.52711,0.31469 0.52652,0.29751 0.52711,0.28021 0.52711,0.26272 0.52711,0.2451 0.52711,0.22732 0.52711,0.20939 0.52711,0.19129 0.52711,0.17306 0.52711,0.15467 0.52711,0.13611 0.52652,0.11742 0.52711,0.0985 0.52711,0.0796 0.52711,0.0604 0.52711,0.0411 0.52711,0.0216 0.52711,0.002 0.52711,-0.0178 0.52711,-0.0377 0.52711,-0.0578 0.52652,-0.078 0.52711,-0.0984 0.52711,-0.11893 0.52711,-0.13961 0.52711,-0.16045 0.52711,-0.18147 0.52711,-0.20258 0.52711,-0.22392 0.52711,-0.24537 0.52711,-0.26697 0.52652,-0.28874 0.52711,-0.31066 0.52711,-0.33274 0.52711,-0.35495 0.52711,-0.37732 0.52711,-0.39985 0.52711,-0.42254 0.52711,-0.44538 0.52711,-0.46834 0.52711,-0.49152 0.52652,-0.51479 0.52711,-0.53824 0.52711,-0.56183 0.52711,-0.58562 0.52711,-0.6095 0.52711,-0.63356 0.52711,-0.65778 0.52711,-0.68217 0.52711,-0.70666 0.52711,-0.73135 0.52652,-0.75616 0.52711,-0.78116 0.52711,-0.80628 0.52711,-0.83157 0.52711,-0.85701 0.52711,-0.8826 0.52711,-0.91037 0.52711,-0.93967 0.52711,-0.96815 0.52711,-0.99584 0.52711,-1.0227 0.52652,-1.0487 0.52711,-1.074 0.52711,-1.0984 0.52711,-1.122 0.52711,-1.1448 0.52711,-1.1668 0.52711,-1.188 0.52711,-1.2083 0.52711,-1.2278 0.52711,-1.2465 0.52652,-1.2645 0.52711,-1.2815 0.52711,-1.2978 0.52711,-1.3133 0.52711,-1.3279 0.52711,-1.3418 0.52711,-1.3547 0.52711,-1.3672 0.52711,-1.3783 0.52711,-1.389 0.52652,-1.3987 0.52711,-1.4077 0.52711,-1.4158 0.52711,-1.4233 0.52711,-1.4296 0.52711,-1.4354 0.52711,-1.4403 0.52711,-1.4442 0.52711,-1.4476 0.52711,-1.45 0.52652,-1.4517 1.0542,-2.9049 0.52711,-1.4517 0.52711,-1.45 0.52711,-1.4476 0.52711,-1.4444 0.52711,-1.4403 0.52711,-1.4354 0.52711,-1.4296 0.52652,-1.4233 0.52711,-1.4158 0.52711,-1.4077 0.52711,-1.3987 0.52711,-1.389 0.52711,-1.3783 0.52711,-1.3669 0.52711,-1.355 0.52711,-1.3417 0.52711,-1.328 0.52652,-1.3152 0.52711,-1.3132 0.52711,-1.3135 1.0542,-2.6265 0.52711,-1.3135 0.52711,-1.3132 0.52711,-1.3135 1.0542,-2.6265 0.52652,-1.3135 0.52711,-1.3132 0.52711,-1.3135 1.0542,-2.6265 0.52711,-1.3135 0.52711,-1.3132 0.52711,-1.3135 1.0542,-2.6265 0.52652,-1.3135 0.52711,-1.3132 0.52711,-1.3135 1.0542,-2.6265 0.52711,-1.3135 0.52711,-1.3132 0.52711,-1.3135 1.0542,-2.6265 0.52652,-1.3135 0.52711,-1.3132 0.52711,-1.3135 1.0542,-2.6265 0.52711,-1.3135 0.52711,-1.3132 0.52711,-1.3135 0.52711,-1.3132 0.52711,-1.3135 0.52652,-1.3132 0.52711,-1.3132 0.52711,-1.3135 0.52711,-1.3132 0.52711,-1.3135 1.0542,-2.6265 0.52711,-1.3135 0.52711,-1.3132 0.52711,-1.3135 0.52652,-1.3132 0.52711,-1.3132 0.52711,-1.3135 0.52711,-1.3132 0.52711,-1.3135 0.52711,-1.3132"
                   fill-rule="evenodd"
                   id="path27" />
              </g>
            </g>
            <g
               fill="none"
               fill-rule="evenodd"
               stroke="#000000"
               stroke-linecap="square"
               stroke-linejoin="bevel"
               id="g37">
              <g
                 fill="none"
                 font-family="Ubuntu"
                 font-size="12px"
                 font-weight="400"
                 stroke="#ecb01f"
                 stroke-linecap="square"
                 stroke-linejoin="bevel"
                 stroke-width="2"
                 id="g35">
                <path
                   d="m 47.472,433.24 0.52711,-0.13194 0.52711,-0.13188 0.52711,-0.13175 0.52711,-0.13155 0.52711,-0.1313 0.52652,-0.13098 0.52711,-0.13059 0.52711,-0.13014 0.52711,-0.12963 0.52711,-0.12905 0.52711,-0.12841 0.52711,-0.1277 0.52711,-0.12693 0.52711,-0.12609 0.52711,-0.12519 0.52652,-0.12423 0.52711,-0.1232 0.52711,-0.12211 0.52711,-0.12096 0.52711,-0.11973 0.52711,-0.11845 0.52711,-0.11708 0.52711,-0.11568 0.52711,-0.11422 0.52711,-0.11266 0.52652,-0.11106 0.52711,-0.10938 0.52711,-0.10766 0.52711,-0.10584 0.52711,-0.10399 0.52711,-0.10207 0.52711,-0.10005 0.52711,-0.098 0.52711,-0.0959 0.52711,-0.0937 0.52652,-0.0914 0.52711,-0.0892 0.52711,-0.0868 0.52711,-0.0843 0.52711,-0.0818 0.52711,-0.0792 0.52711,-0.0766 0.52711,-0.0739 0.52711,-0.0712 0.52711,-0.0683 0.52652,-0.0654 0.52711,-0.0625 0.52711,-0.0595 0.52711,-0.0564 0.52711,-0.0532 0.52711,-0.05 0.52711,-0.0468 0.52711,-0.0434 0.52711,-0.04 0.52711,-0.0365 0.52652,-0.033 0.52711,-0.0294 0.52711,-0.0257 0.52711,-0.022 0.52711,-0.0182 0.52711,-0.0144 0.52711,-0.0104 0.52711,-0.006 0.52711,-0.002 0.52711,0.002 0.52652,0.006 0.52711,0.0101 0.52711,0.0144 0.52711,0.0188 0.52711,0.0232 0.52711,0.0277 0.52711,0.0323 0.52711,0.0369 0.52711,0.0416 0.52711,0.0464 0.52652,0.0512 0.52711,0.0561 0.52711,0.061 0.52711,0.066 0.52711,0.0711 0.52711,0.0762 0.52711,0.0815 0.52711,0.0867 0.52711,0.0921 0.52711,0.0974 0.52652,0.10292 0.52711,0.10844 0.52711,0.11405 0.52711,0.11968 0.52711,0.12539 0.52711,0.1312 0.52711,0.13703 0.52711,0.14296 0.52711,0.14891 0.52711,0.15496 0.52652,0.16109 0.52711,0.16723 0.52711,0.17348 0.52711,0.17975 0.52711,0.18614 0.52711,0.19256 0.52711,0.19904 0.52711,0.2056 0.52711,0.21222 0.52711,0.2189 0.52652,0.22565 0.52711,0.23246 0.52711,0.23934 0.52711,0.24627 0.52711,0.25328 0.52711,0.26034 0.52711,0.26741 0.52711,0.27422 0.52711,0.28071 0.52711,0.28688 0.52711,0.29273 0.52652,0.29826 0.52711,0.30346 0.52711,0.30834 0.52711,0.31292 0.52711,0.31714 0.52711,0.32105 0.52711,0.32467 0.52711,0.32795 0.52711,0.33089 0.52711,0.33352 0.52652,0.33585 0.52711,0.33784 0.52711,0.33952 0.52711,0.34086 0.52711,0.34188 0.52711,0.3426 0.52711,0.34297 0.52711,0.34304 0.52711,0.3428 0.52711,0.34219 0.52652,0.34132 0.52711,0.34008 0.52711,0.33855 0.52711,0.33668 0.52711,0.33451 0.52711,0.33199 0.52711,0.32917 0.52711,0.32601 0.52711,0.32254 0.52711,0.31877 0.52652,0.31464 0.52711,0.31019 0.52711,0.30546 0.52711,0.30038 0.52711,0.29498 0.52711,0.28925 0.52711,0.28322 0.52711,0.27686 0.52711,0.27018 0.52711,0.26318 0.52652,0.25584 0.52711,0.24821 0.52711,0.24022 0.52711,0.23196 0.52711,0.22333 0.52711,0.21439 0.52711,0.20516 0.52711,0.19556 0.52711,0.18567 0.52711,0.17547 0.52652,0.16492 0.52711,0.15406 0.52711,0.14289 0.52711,0.13137 0.52711,0.11956 0.52711,0.10741 0.52711,0.0949 0.52711,0.0822 0.52711,0.0691 0.52711,0.0556 0.52652,0.0419 0.52711,0.0278 0.52711,0.0134 0.52711,-10e-4 0.52711,-0.0163 0.52711,-0.0317 0.52711,-0.0474 0.52711,-0.0634 0.52711,-0.0797 0.52711,-0.0963 0.52652,-0.11332 0.52711,-0.13057 0.52711,-0.14821 0.52711,-0.16612 0.52711,-0.18439 0.52711,-0.20295 0.52711,-0.22183 0.52711,-0.24105 0.52711,-0.26058 0.52711,-0.28043 0.52652,-0.30062 0.52711,-0.3211 0.52711,-0.34192 0.52711,-0.36309 0.52711,-0.38452 0.52711,-0.40631 0.52711,-0.42842 0.52711,-0.45085 0.52711,-0.47359 0.52711,-0.49667 0.52652,-0.52004 0.52711,-0.54376 0.52711,-0.56781 0.52711,-0.59213 0.52711,-0.61682 0.52711,-0.64182 0.52711,-0.66713 0.52711,-0.69277 0.52711,-0.71874 0.52711,-0.745 0.52652,-0.77161 0.52711,-0.79853 0.52711,-0.82579 0.52711,-0.85334 0.52711,-0.88123 0.52711,-0.90944 0.52711,-0.9378 0.52711,-0.96564 0.52711,-0.99279 0.52711,-1.0193 0.52711,-1.045 0.52652,-1.0701 0.52711,-1.0945 0.52711,-1.1182 0.52711,-1.1413 0.52711,-1.1636 0.52711,-1.1853 0.52711,-1.2062 0.52711,-1.2265 0.52711,-1.2461 0.52711,-1.265 0.52652,-1.2832 0.52711,-1.3007 0.52711,-1.3176 0.52711,-1.3337 0.52711,-1.3492 0.52711,-1.3639 0.52711,-1.3781 0.52711,-1.3915 0.52711,-1.4041 0.52711,-1.416 0.52652,-1.4277 0.52711,-1.4381 0.52711,-1.4481 0.52711,-1.4573 0.52711,-1.4658 0.52711,-1.4738 0.52711,-1.4811 0.52711,-1.4874 0.52711,-1.4935 0.52711,-1.4984 0.52652,-1.503 0.52711,-1.5069 0.52711,-1.5098 0.52711,-1.5122 0.52711,-1.5139 0.52711,-1.5149 0.52711,-1.5151 0.52711,-1.5149 0.52711,-1.5139 0.52711,-1.512 0.52652,-1.5098 0.52711,-1.5064 0.52711,-1.5027 0.52711,-1.4984 0.52711,-1.493 0.52711,-1.4872 0.52711,-1.4806 0.52711,-1.4736 0.52711,-1.4653 0.52711,-1.4571 0.52652,-1.4476 0.52711,-1.4374 0.52711,-1.4269 0.52711,-1.4155 0.52711,-1.4036 0.52711,-1.3907 0.52711,-1.3771 0.52711,-1.3633 0.52711,-1.3482 0.52711,-1.3329 0.52652,-1.3166 0.52711,-1.2999 0.52711,-1.2824 0.52711,-1.2639 0.52711,-1.245 0.52711,-1.2255 0.52711,-1.2051 0.52711,-1.1842 0.52711,-1.1623 0.52711,-1.14 0.52652,-1.1172 0.52711,-1.0931 0.52711,-1.0688 0.52711,-1.0438 0.52711,-1.0178 0.52711,-0.99154 0.52711,-0.96409 0.52711,-0.93639 0.52711,-0.90772 0.52711,-0.87832 0.52652,-0.84868 0.52711,-0.81782 0.52711,-0.78672 0.52711,-0.75441 0.52711,-0.72185 0.52711,-0.68856 0.52711,-0.65455 0.52711,-0.61956 0.52711,-0.58433 0.52711,-0.54813 0.52652,-0.5112 0.52711,-0.47378 0.52711,-0.43539 0.52711,-0.39676 0.52711,-0.35716 0.52711,-0.31683 0.52711,-0.27601 0.52711,-0.23422 0.52711,-0.19194 0.52711,-0.14894 0.52652,-0.1052 0.52711,-0.0607 0.52711,-0.0158 0.52711,0.0301 0.52711,0.0763 0.52711,0.12367 0.52711,0.17105 0.52711,0.2177 0.52711,0.26313 0.52711,0.30686 0.52711,0.34987 0.52652,0.39142 0.52711,0.43175 0.52711,0.47062 0.52711,0.50853 0.52711,0.54473 0.52711,0.5802 0.52711,0.61422 0.52711,0.64702 0.52711,0.67836 0.52711,0.70873 0.52652,0.73764 0.52711,0.7651 0.52711,0.79182 0.52711,0.81685 0.52711,0.8409 0.52711,0.8635 0.52711,0.88488 0.52711,0.90504 0.52711,0.924 0.52711,0.94173 0.52652,0.95801 0.52711,0.97307 0.52711,0.98717 0.52711,0.99956 0.52711,1.011 0.52711,1.0209 0.52711,1.0299 0.52711,1.0375 0.52711,1.0438 0.52711,1.0489 0.52652,1.0525 0.52711,1.0552 0.52711,1.0567 0.52711,1.0564 0.52711,1.0552 0.52711,1.053 0.52711,1.0489 0.52711,1.044 0.52711,1.0379 0.52711,1.0302 0.52652,1.0217 0.52711,1.0115 0.52711,1 0.52711,0.98765 0.52711,0.9738 0.52711,0.95874 0.52711,0.94246 0.52711,0.92497 0.52711,0.90602 0.52711,0.88585 0.52652,0.86471 0.52711,0.84187 0.52711,0.81806 0.52711,0.79304 0.52711,0.76655 0.52711,0.73886 0.52711,0.71019 0.52711,0.67982 0.52711,0.64847 0.52711,0.61567 0.52652,0.5819 0.52711,0.54667 0.52711,0.51023 0.52711,0.47257 0.52711,0.43369 0.52711,0.39336 0.52711,0.35181 0.52711,0.30905 0.52711,0.26507 0.52711,0.21988 0.52652,0.17348 0.52711,0.12561 0.52711,0.0765 0.52711,0.0262 0.52711,-0.0253 0.52711,-0.078 0.52711,-0.13217 0.52711,-0.18733 0.52711,-0.24394 0.52711,-0.30176 0.52652,-0.36105 0.52711,-0.4213 0.52711,-0.48277 0.52711,-0.5457 0.52711,-0.60984 0.52711,-0.6752 0.52711,-0.74177 0.52711,-0.8098 0.52711,-0.87905 0.52711,-0.94926 0.52652,-1.0209 0.52711,-1.0938 0.52711,-1.1682 0.52711,-1.2435 0.52711,-1.3203 0.52711,-1.398 0.52711,-1.4775 0.52711,-1.5579 0.52711,-1.6395 0.52711,-1.7226 0.52652,-1.8067 0.52711,-1.8925 0.52711,-1.9789 0.52711,-2.0671 0.52711,-2.1563 0.52711,-2.2469 0.52711,-2.3381 0.52711,-2.4272 0.52711,-2.514 0.52711,-2.5978 0.52711,-2.6792 0.52652,-2.7579 0.52711,-2.8339 0.52711,-2.9078 0.52711,-2.9785 0.52711,-3.047 0.52711,-3.1126 0.52711,-3.1758 0.52711,-3.2363 0.52711,-3.2941 0.52711,-3.3498 0.52652,-3.4022 0.52711,-3.4523 0.52711,-3.4999 0.52711,-3.5449 0.52711,-3.5869 0.52711,-3.6267 0.52711,-3.6639 0.52711,-3.6982 0.52711,-3.7302 0.52711,-3.7594 0.52652,-3.7859 0.52711,-3.8102 0.52711,-3.8316 0.52711,-3.8503 0.52711,-3.8668 0.52711,-3.8802 0.52711,-3.8913 0.52711,-3.8996 0.52711,-3.9054 0.52711,-3.9088 0.52652,-3.9093 0.52711,-3.9071 0.52711,-3.9027 0.52711,-3.8955 0.52711,-3.8855 0.52711,-3.8733 0.52711,-3.858 0.52711,-3.8396 0.52711,-3.8218 0.52711,-3.7975 0.52652,-3.7708 0.52711,-3.7441 0.52711,-3.7125 0.52711,-3.6809 0.52711,-3.6445 0.52711,-3.6056 0.52711,-3.5643 0.52711,-3.5206 0.52711,-3.4744 0.52711,-3.4258 0.52652,-3.3748 0.52711,-3.3213 0.52711,-3.2679 0.52711,-3.2169 0.52711,-3.1658 0.52711,-3.1124 0.52711,-3.0614 0.52711,-3.0103 0.52711,-2.9569 0.52711,-2.9083 0.52652,-2.8573 0.52711,-2.8062 0.52711,-2.7577 0.52711,-2.7066 0.52711,-2.655598 0.52711,-2.607 0.52711,-2.5584 0.52711,-2.5074 0.52711,-2.4588 0.52711,-2.4102 0.52652,-2.364 0.52711,-2.313 0.52711,-2.2644 0.52711,-2.2183 0.52711,-2.1721 0.52711,-2.1211 0.52711,-2.0774 0.52711,-2.0288 0.52711,-1.9826 0.52711,-1.934 0.52652,-1.8903 0.52711,-1.8441 0.52711,-1.7955 0.52711,-1.7518 0.52711,-1.708 0.52711,-1.6595 0.52711,-1.6181 0.52711,-1.5696 0.52711,-1.5282 0.52711,-1.4821 0.52652,-1.4384 0.52711,-1.3946 0.52711,-1.3533 0.52711,-1.3072 0.52711,-1.2634 0.52711,-1.2221 0.52711,-1.1784 0.52711,-1.1371 0.52711,-1.0933 0.52711,-1.052 0.52652,-1.0107 0.52711,-0.96943 0.52711,-0.9257 0.52711,-0.88682 0.52711,-0.84309 0.52711,-0.80421 0.52711,-0.76534 0.52711,-0.72161 0.52711,-0.68516 0.52711,-0.64143 0.52711,-0.60498 0.52652,-0.56368 0.52711,-0.5248 0.52711,-0.48593 0.52711,-0.44706 0.52711,-0.41061 0.52711,-0.36931 0.52711,-0.33286 0.52711,-0.29399 0.52711,-0.25754 0.52711,-0.21867 0.52652,-0.18222 0.52711,-0.14578 0.52711,-0.1069 0.52711,-0.07289 0.52711,-0.03644 0.52711,0.0024 0.52711,0.03645 0.52711,0.07046 0.52711,0.10933 0.52711,0.14092 0.52652,0.17736 0.52711,0.21381 0.52711,0.24782 0.52711,0.27941 0.52711,0.31585 0.52711,0.34987 0.52711,0.38388 0.52711,0.41547 0.52711,0.44949 0.52711,0.4835 0.52652,0.51509 0.52711,0.5491 0.52711,0.58069 0.52711,0.61227 0.52711,0.64386 0.52711,0.67544 0.52711,0.70703 0.52711,0.74104 0.52711,0.76777 0.52711,0.80178 0.52652,0.83094 0.52711,0.86253 0.52711,0.89168 0.52711,0.92084 0.52711,0.94999 0.52711,0.98158 0.52711,1.0107 0.52711,1.0375 0.52711,1.069 0.52711,1.0958 0.52652,1.1249 0.52711,1.1541 0.52711,1.1808 0.52711,1.2075 0.52711,1.2367 0.52711,1.261 0.52711,1.2926 0.52711,1.3169 0.52711,1.3436 0.52711,1.3679 0.52652,1.397 0.52711,1.4213 0.52711,1.4481 0.52711,1.4748 0.52711,1.4967 0.52711,1.5234 0.52711,1.5501 0.52711,1.572 0.52711,1.5963 0.52711,1.623 0.52652,1.6449 0.52711,1.6692 0.52711,1.6935 0.52711,1.7153 0.52711,1.7372 0.52711,1.7615 0.52711,1.7858 0.52711,1.8052 0.52711,1.8295 0.52711,1.8514 0.52652,1.8733 0.52711,1.8927 0.52711,1.9146 0.52711,1.9364 0.52711,1.9583 0.52711,1.9777 0.52711,1.997198 0.52711,2.019 0.52711,2.0385 0.52711,2.0579 0.52652,2.0774 0.52711,2.0968 0.52711,2.1162 0.52711,2.1332 0.52711,2.1551 0.52711,2.1697 0.52711,2.1915 0.52711,2.2061 0.52711,2.2256 0.52711,2.245 0.52652,2.2596 0.52711,2.2766 0.52711,2.296 0.52711,2.3106 0.52711,2.3252 0.52711,2.3446 0.52711,2.3592 0.52711,2.3762 0.52711,2.3883 0.52711,2.4054 0.52711,2.4199 0.52652,2.4321 0.52711,2.4467 0.52711,2.4612 0.52711,2.471 0.52711,2.4855 0.52711,2.4977 0.52711,2.5074 0.52711,2.5195 0.52711,2.5293 0.52711,2.5414 0.52652,2.5487 0.52711,2.5609 0.52711,2.5681 0.52711,2.5779 0.52711,2.5866 0.52711,2.5937 0.52711,2.6014 0.52711,2.6082 0.52711,2.615 0.52711,2.6211 0.52652,2.6272 0.52711,2.6325 0.52711,2.6376 0.52711,2.6422 0.52711,2.6466 0.52711,2.6503 0.52711,2.6539 0.52711,2.6568 0.52711,2.6595 0.52711,2.6617 0.52652,2.6634 0.52711,2.6651 0.52711,2.6658 0.52711,2.6665 1.0542,5.3336 0.52711,2.6658 0.52711,2.6651 0.52711,2.6634 0.52711,2.6619 0.52652,2.6595 0.52711,2.6568 0.52711,2.6539 0.52711,2.6505 0.52711,2.6466 0.52711,2.6422 0.52711,2.6379 0.52711,2.6325 0.52711,2.6272 0.52711,2.6216 0.52652,2.615 0.52711,2.6085 0.52711,2.6014 0.52711,2.5939 0.52711,2.5861 0.52711,2.5779 0.52711,2.5689 0.52711,2.5601 0.52711,2.5506 0.52711,2.5404 0.52652,2.5305 0.52711,2.5195 0.52711,2.5086 0.52711,2.497 0.52711,2.485 0.52711,2.4729 0.52711,2.46 0.52711,2.4469 0.52711,2.4335 0.52711,2.4194 0.52652,2.4051 0.52711,2.3905 0.52711,2.3752 0.52711,2.3597 0.52711,2.3439 0.52711,2.3274 0.52711,2.3106 0.52711,2.2936 0.52711,2.2759 0.52711,2.2581 0.52652,2.2394 0.52711,2.2209 0.52711,2.2015 0.52711,2.1821 0.52711,2.1619 0.52711,2.1417 0.52711,2.1208 0.52711,2.0997 0.52711,2.0781 0.52711,2.056 0.52652,2.0336 0.52711,2.0108 0.52711,1.9875 0.52711,1.9639 0.52711,1.9401 0.52711,1.9153 0.52711,1.8908 0.52711,1.8652 0.52711,1.8397 0.52711,1.8137 0.52652,1.7873 0.52711,1.7603 0.52711,1.7331 0.52711,1.7056 0.52711,1.6772 0.52711,1.649 0.52711,1.6201 0.52711,1.5913 0.52711,1.5626 0.52711,1.534 0.52711,1.5055 0.52652,1.4771 0.52711,1.4488 0.52711,1.4205 0.52711,1.3923 0.52711,1.3643 0.52711,1.3363 0.52711,1.3084 0.52711,1.2807 0.52711,1.253 0.52711,1.2253 0.52652,1.1979 0.52711,1.1704 0.52711,1.1431 0.52711,1.1159 0.52711,1.0887 0.52711,1.0617 0.52711,1.0347 0.52711,1.0078 0.52711,0.98104 0.52711,0.95434 0.52652,0.92774 0.52711,0.90123 0.52711,0.87482 0.52711,0.84848 0.52711,0.82227 0.52711,0.7961 0.52711,0.77005 0.52711,0.74408 0.52711,0.71823 0.52711,0.69243 0.52652,0.66677 0.52711,0.64114 0.52711,0.61565 0.52711,0.59023 0.52711,0.56489 0.52711,0.53967 0.52711,0.51453 0.52711,0.48948 0.52711,0.46452 0.52711,0.43965 0.52652,0.41486 0.52711,0.3902 0.52711,0.36559 0.52711,0.34107 0.52711,0.31668 0.52711,0.29234 0.52711,0.26811 0.52711,0.24399 0.52711,0.21993 0.52711,0.1959 0.52652,0.17226 0.52711,0.14821 0.52711,0.12464 0.52711,0.10107 0.52711,0.0775 0.52711,0.0542 0.52711,0.0309 0.52711,0.008 0.52711,-0.0155 0.52711,-0.0386 0.52652,-0.0615 0.52711,-0.0843 0.52711,-0.10739 0.52711,-0.12974 0.52711,-0.15258 0.52711,-0.17493 0.52711,-0.19726 0.52711,-0.21969 0.52711,-0.24192 0.52711,-0.26403 0.52652,-0.28609 0.52711,-0.30803 0.52711,-0.3299 0.52711,-0.35167 0.52711,-0.37336 0.52711,-0.39494 0.52711,-0.41642 0.52711,-0.43785 0.52711,-0.45916 0.52711,-0.48039 0.52652,-0.5015 0.52711,-0.52254 0.52711,-0.54351 0.52711,-0.56436 0.52711,-0.58513 0.52711,-0.60581 0.52711,-0.62639 0.52711,-0.64689 0.52711,-0.66728 0.52711,-0.68762 0.52652,-0.70781 0.52711,-0.72797 0.52711,-0.74799 0.52711,-0.76794 0.52711,-0.78779 0.52711,-0.80757 0.52711,-0.82722 0.52711,-0.84683 0.52711,-0.86629 0.52711,-0.88573 0.52652,-0.90502 0.52711,-0.92424 0.52711,-0.94336 0.52711,-0.96241 0.52711,-0.98135 0.52711,-1.0002 0.52711,-1.0189 0.52711,-1.0373 0.52711,-1.0552 0.52711,-1.0727 0.52711,-1.0897 0.52652,-1.1064 0.52711,-1.1226 0.52711,-1.1384 0.52711,-1.1538 0.52711,-1.1688 0.52711,-1.1833 0.52711,-1.1974 0.52711,-1.2111 0.52711,-1.2244 0.52711,-1.2372 0.52652,-1.2496 0.52711,-1.2616 0.52711,-1.2732 0.52711,-1.2844 0.52711,-1.2951 0.52711,-1.3053 0.52711,-1.3154 0.52711,-1.3249 0.52711,-1.3336 0.52711,-1.3426 0.52652,-1.3506 0.52711,-1.3584 0.52711,-1.3657 0.52711,-1.3728 0.52711,-1.3791 0.52711,-1.3854 0.52711,-1.391 0.52711,-1.3961 0.52711,-1.4012 0.52711,-1.4053 0.52652,-1.4094 0.52711,-1.4128 0.52711,-1.416 0.52711,-1.4189 0.52711,-1.4209 0.52711,-1.423 0.52711,-1.4243 0.52711,-1.4255 1.0542,-2.8519 0.52652,-1.426 0.52711,-1.4252 0.52711,-1.424 0.52711,-1.4226 0.52711,-1.4206 0.52711,-1.4182 0.52711,-1.4155 0.52711,-1.4124 0.52711,-1.4085 0.52711,-1.4046 0.52652,-1.4002 0.52711,-1.3953 0.52711,-1.391 0.52711,-1.3864 0.52711,-1.382 0.52711,-1.3779 0.52711,-1.3735 0.52711,-1.3694 0.52711,-1.3652 0.52711,-1.3613 0.52652,-1.3574 0.52711,-1.3536 0.52711,-1.3499 0.52711,-1.3463 0.52711,-1.3426 0.52711,-1.3395 0.52711,-1.3358 0.52711,-1.3324 0.52711,-1.3295 0.52711,-1.3261 0.52652,-1.3232 0.52711,-1.3203 0.52711,-1.3174 0.52711,-1.3147 0.52711,-1.3118 0.52711,-1.3093 0.52711,-1.3067 0.52711,-1.3042 0.52711,-1.302 0.52711,-1.2996 0.52652,-1.2974 0.52711,-1.2952 0.52711,-1.2933 0.52711,-1.2914 0.52711,-1.2894 0.52711,-1.2877 0.52711,-1.286 0.52711,-1.2843 0.52711,-1.2829 0.52711,-1.2814 0.52652,-1.2802 0.52711,-1.2787 0.52711,-1.2778 0.52711,-1.2765 0.52711,-1.2756 0.52711,-1.2746 0.52711,-1.2736 0.52711,-1.2731 0.52711,-1.2722 0.52711,-1.2719 0.52652,-1.2712 0.52711,-1.2707 0.52711,-1.2705 0.52711,-1.2702 1.0542,-2.54"
                   fill-rule="evenodd"
                   id="path33" />
              </g>
            </g>
            <g
               fill="none"
               fill-rule="evenodd"
               stroke="#000000"
               stroke-linecap="square"
               stroke-linejoin="bevel"
               id="g63">
              <g
                 fill="#ff0000"
                 fill-rule="evenodd"
                 font-family="Ubuntu"
                 font-size="12px"
                 font-weight="400"
                 stroke="#ff0000"
                 stroke-linecap="square"
                 stroke-linejoin="bevel"
                 id="g61">
                <path
                   d="m 50.472,433.24 c 0,1.6569 -1.3431,3 -3,3 -1.6569,0 -3,-1.3431 -3,-3 0,-1.6569 1.3431,-3 3,-3 1.6569,0 3,1.3431 3,3"
                   id="path39" />
                <path
                   d="m 108.98,433.24 c 0,1.6569 -1.3431,3 -3,3 -1.6569,0 -3,-1.3431 -3,-3 0,-1.6569 1.3431,-3 3,-3 1.6569,0 3,1.3431 3,3"
                   id="path41" />
                <path
                   d="m 167.48,433.24 c 0,1.6569 -1.3431,3 -3,3 -1.6569,0 -3,-1.3431 -3,-3 0,-1.6569 1.3431,-3 3,-3 1.6569,0 3,1.3431 3,3"
                   id="path43" />
                <path
                   d="m 225.98,311.76 c 0,1.6569 -1.3431,3 -3,3 -1.6569,0 -3,-1.3431 -3,-3 0,-1.6569 1.3431,-3 3,-3 1.6569,0 3,1.3431 3,3"
                   id="path45" />
                <path
                   d="m 284.48,336.06 c 0,1.6569 -1.3431,3 -3,3 -1.6569,0 -3,-1.3431 -3,-3 0,-1.6569 1.3431,-3 3,-3 1.6569,0 3,1.3431 3,3"
                   id="path47" />
                <path
                   d="m 313.73,141.69 c 0,1.6569 -1.3431,3 -3,3 -1.6569,0 -3,-1.3431 -3,-3 0,-1.6569 1.3431,-3 3,-3 1.6569,0 3,1.3431 3,3"
                   id="path49" />
                <path
                   d="m 401.49,141.69 c 0,1.6569 -1.3431,3 -3,3 -1.6569,0 -3,-1.3431 -3,-3 0,-1.6569 1.3431,-3 3,-3 1.6569,0 3,1.3431 3,3"
                   id="path51" />
                <path
                   d="m 459.99,408.95 c 0,1.6569 -1.3431,3 -3,3 -1.6569,0 -3,-1.3431 -3,-3 0,-1.6569 1.3431,-3 3,-3 1.6569,0 3,1.3431 3,3"
                   id="path53" />
                <path
                   d="m 518.49,433.24 c 0,1.6569 -1.3431,3 -3,3 -1.6569,0 -3,-1.3431 -3,-3 0,-1.6569 1.3431,-3 3,-3 1.6569,0 3,1.3431 3,3"
                   id="path55" />
                <path
                   d="m 547.74,360.36 c 0,1.6569 -1.3431,3 -3,3 -1.6569,0 -3,-1.3431 -3,-3 0,-1.6569 1.3431,-3 3,-3 1.6569,0 3,1.3431 3,3"
                   id="path57" />
                <path
                   d="m 577,287.46 c 0,1.6569 -1.3431,3 -3,3 -1.6569,0 -3,-1.3431 -3,-3 0,-1.6569 1.3431,-3 3,-3 1.6569,0 3,1.3431 3,3"
                   id="path59" />
              </g>
            </g>
            <g
               transform="translate(32.469,11)"
               fill="#ffffff"
               fill-opacity="0.78431"
               font-family="Ubuntu"
               font-size="12px"
               font-weight="400"
               stroke="none"
               id="g67">
              <rect
                 width="214.7"
                 height="110"
                 id="rect65"
                 x="0"
                 y="0" />
            </g>
            <g
               fill-rule="evenodd"
               stroke="#000000"
               stroke-linecap="square"
               stroke-linejoin="bevel"
               id="g127">
              <g
                 fill="none"
                 id="g115">
                <g
                   stroke-linecap="square"
                   stroke-linejoin="bevel"
                   id="g109">
                  <g
                     font-family="Ubuntu"
                     font-size="12px"
                     font-weight="400"
                     stroke="#0071bc"
                     stroke-width="2"
                     id="g71">
                    <polyline
                       points="41.469 31 61.469 31"
                       fill="none"
                       id="polyline69" />
                  </g>
                  <g
                     fill-rule="evenodd"
                     stroke="#000000"
                     id="g77">
                    <g
                       transform="translate(66.469,20)"
                       fill="none"
                       font-family="Ubuntu"
                       font-size="12px"
                       font-weight="400"
                       stroke="#000000"
                       stroke-linecap="square"
                       stroke-linejoin="bevel"
                       id="g75">
                      <text
                         x="4"
                         y="15.1875"
                         fill="#000000"
                         font-family="Ubuntu"
                         font-size="12px"
                         font-weight="400"
                         stroke="none"
                         xml:space="preserve"
                         id="text73">Linear interpolation</text>
                    </g>
                  </g>
                  <g
                     font-family="Ubuntu"
                     font-size="12px"
                     font-weight="400"
                     stroke="#d85218"
                     stroke-width="2"
                     id="g81">
                    <polyline
                       points="41.469 48.4 61.469 48.4"
                       fill="none"
                       id="polyline79" />
                  </g>
                  <g
                     fill-rule="evenodd"
                     stroke="#000000"
                     id="g87">
                    <g
                       transform="translate(66.469,37.4)"
                       fill="none"
                       font-family="Ubuntu"
                       font-size="12px"
                       font-weight="400"
                       stroke="#000000"
                       stroke-linecap="square"
                       stroke-linejoin="bevel"
                       id="g85">
                      <text
                         x="4"
                         y="15.1875"
                         fill="#000000"
                         font-family="Ubuntu"
                         font-size="12px"
                         font-weight="400"
                         stroke="none"
                         xml:space="preserve"
                         id="text83">Monotonic cubic interpolation</text>
                    </g>
                  </g>
                  <g
                     font-family="Ubuntu"
                     font-size="12px"
                     font-weight="400"
                     stroke="#76ab2f"
                     stroke-width="2"
                     id="g91">
                    <polyline
                       points="41.469 65.8 61.469 65.8"
                       fill="none"
                       id="polyline89" />
                  </g>
                  <g
                     fill-rule="evenodd"
                     stroke="#000000"
                     id="g97">
                    <g
                       transform="translate(66.469,54.8)"
                       fill="none"
                       font-family="Ubuntu"
                       font-size="12px"
                       font-weight="400"
                       stroke="#000000"
                       stroke-linecap="square"
                       stroke-linejoin="bevel"
                       id="g95">
                      <text
                         x="4"
                         y="15.1875"
                         fill="#000000"
                         font-family="Ubuntu"
                         font-size="12px"
                         font-weight="400"
                         stroke="none"
                         xml:space="preserve"
                         id="text93">Akima spline</text>
                    </g>
                  </g>
                  <g
                     font-family="Ubuntu"
                     font-size="12px"
                     font-weight="400"
                     stroke="#ecb01f"
                     stroke-width="2"
                     id="g101">
                    <polyline
                       points="41.469 83.2 61.469 83.2"
                       fill="none"
                       id="polyline99" />
                  </g>
                  <g
                     fill-rule="evenodd"
                     stroke="#000000"
                     id="g107">
                    <g
                       transform="translate(66.469,72.2)"
                       fill="none"
                       font-family="Ubuntu"
                       font-size="12px"
                       font-weight="400"
                       stroke="#000000"
                       stroke-linecap="square"
                       stroke-linejoin="bevel"
                       id="g105">
                      <text
                         x="4"
                         y="15.1875"
                         fill="#000000"
                         font-family="Ubuntu"
                         font-size="12px"
                         font-weight="400"
                         stroke="none"
                         xml:space="preserve"
                         id="text103">Natural cubic spline</text>
                    </g>
                  </g>
                </g>
                <g
                   font-family="Ubuntu"
                   font-size="12px"
                   font-weight="400"
                   stroke="none"
                   id="g113">
                  <polyline
                     points="41.469 100.6 61.469 100.6"
                     fill="none"
                     id="polyline111" />
                </g>
              </g>
              <g
                 fill="#ff0000"
                 font-family="Ubuntu"
                 font-size="12px"
                 font-weight="400"
                 stroke="#ff0000"
                 stroke-linecap="square"
                 stroke-linejoin="bevel"
                 id="g119">
                <path
                   d="m 54.469,99.6 c 0,1.6569 -1.3431,3 -3,3 -1.6569,0 -3,-1.3431 -3,-3 0,-1.6569 1.3431,-3 3,-3 1.6569,0 3,1.3431 3,3"
                   fill-rule="evenodd"
                   id="path117" />
              </g>
              <g
                 fill="none"
                 fill-rule="evenodd"
                 stroke="#000000"
                 stroke-linecap="square"
                 stroke-linejoin="bevel"
                 id="g125">
                <g
                   transform="translate(66.469,89.6)"
                   fill="none"
                   font-family="Ubuntu"
                   font-size="12px"
                   font-weight="400"
                   stroke="#000000"
                   stroke-linecap="square"
                   stroke-linejoin="bevel"
                   id="g123">
                  <text
                     x="4"
                     y="15.1875"
                     fill="#000000"
                     font-family="Ubuntu"
                     font-size="12px"
                     font-weight="400"
                     stroke="none"
                     xml:space="preserve"
                     id="text121">data points</text>
                </g>
              </g>
            </g>
            <g
               transform="translate(31.469,10)"
               fill="none"
               font-family="Ubuntu"
               font-size="12px"
               font-weight="400"
               stroke="none"
               id="g131">
              <rect
                 width="558.53003"
                 height="460"
                 id="rect129"
                 x="0"
                 y="0" />
            </g>
          </g>
        </g>
        <g
           font-family="Ubuntu"
           font-size="12px"
           font-weight="400"
           stroke-linecap="square"
           stroke-linejoin="bevel"
           id="g243">
          <g
             fill="none"
             stroke="#000000"
             id="g141">
            <polyline
               points="31.469 10 590 10"
               id="polyline137" />
            <polyline
               points="31.469 470 590 470"
               id="polyline139" />
          </g>
          <g
             fill="none"
             stroke="#000000"
             stroke-opacity="0.49804"
             id="g145">
            <polyline
               points="574 10 574 470"
               fill="none"
               id="polyline143" />
          </g>
          <g
             fill="none"
             stroke="#000000"
             stroke-opacity="0.24706"
             id="g155">
            <polyline
               points="105.98 10 105.98 470"
               id="polyline147" />
            <polyline
               points="222.98 10 222.98 470"
               id="polyline149" />
            <polyline
               points="339.99 10 339.99 470"
               id="polyline151" />
            <polyline
               points="456.99 10 456.99 470"
               id="polyline153" />
          </g>
          <g
             fill="none"
             stroke="#000000"
             stroke-opacity="0.16471"
             id="g167">
            <polyline
               points="47.472 10 47.472 470"
               id="polyline157" />
            <polyline
               points="164.48 10 164.48 470"
               id="polyline159" />
            <polyline
               points="281.48 10 281.48 470"
               id="polyline161" />
            <polyline
               points="398.49 10 398.49 470"
               id="polyline163" />
            <polyline
               points="515.49 10 515.49 470"
               id="polyline165" />
          </g>
          <g
             transform="translate(31.469,470)"
             fill="#000000"
             stroke="none"
             id="g189">
            <text
               x="535.75"
               y="13.375"
               xml:space="preserve"
               id="text169">10</text>
            <text
               x="71.109398"
               y="13.375"
               xml:space="preserve"
               id="text171">2</text>
            <text
               x="188.125"
               y="13.375"
               xml:space="preserve"
               id="text173">4</text>
            <text
               x="305.125"
               y="13.375"
               xml:space="preserve"
               id="text175">6</text>
            <text
               x="422.125"
               y="13.375"
               xml:space="preserve"
               id="text177">8</text>
            <text
               x="12.6094"
               y="13.375"
               xml:space="preserve"
               id="text179">1</text>
            <text
               x="129.625"
               y="13.375"
               xml:space="preserve"
               id="text181">3</text>
            <text
               x="246.625"
               y="13.375"
               xml:space="preserve"
               id="text183">5</text>
            <text
               x="363.625"
               y="13.375"
               xml:space="preserve"
               id="text185">7</text>
            <text
               x="480.64099"
               y="13.375"
               xml:space="preserve"
               id="text187">9</text>
          </g>
          <g
             fill="none"
             stroke="#000000"
             id="g193">
            <polyline
               points="31.469 10 31.469 470"
               fill="none"
               id="polyline191" />
          </g>
          <g
             fill="none"
             stroke="#000000"
             stroke-opacity="0.49804"
             id="g197">
            <polyline
               points="590 433.24 31.469 433.24"
               fill="none"
               id="polyline195" />
          </g>
          <g
             fill="none"
             stroke="#000000"
             stroke-opacity="0.24706"
             id="g201">
            <polyline
               points="590 190.28 31.469 190.28"
               fill="none"
               id="polyline199" />
          </g>
          <g
             fill="none"
             stroke="#000000"
             stroke-opacity="0.16471"
             id="g217">
            <polyline
               points="590 384.65 31.469 384.65"
               id="polyline203" />
            <polyline
               points="590 336.06 31.469 336.06"
               id="polyline205" />
            <polyline
               points="590 287.46 31.469 287.46"
               id="polyline207" />
            <polyline
               points="590 238.87 31.469 238.87"
               id="polyline209" />
            <polyline
               points="590 141.69 31.469 141.69"
               id="polyline211" />
            <polyline
               points="590 93.093 31.469 93.093"
               id="polyline213" />
            <polyline
               points="590 44.5 31.469 44.5"
               id="polyline215" />
          </g>
          <g
             transform="translate(10,10)"
             fill="#000000"
             stroke="none"
             id="g237">
            <text
               x="9.7031298"
               y="427.89099"
               xml:space="preserve"
               id="text219">0</text>
            <text
               x="9.7031298"
               y="184.922"
               xml:space="preserve"
               id="text221">1</text>
            <text
               y="379.297"
               xml:space="preserve"
               id="text223">0.2</text>
            <text
               y="330.703"
               xml:space="preserve"
               id="text225">0.4</text>
            <text
               y="282.10901"
               xml:space="preserve"
               id="text227">0.6</text>
            <text
               y="233.51601"
               xml:space="preserve"
               id="text229">0.8</text>
            <text
               y="136.328"
               xml:space="preserve"
               id="text231">1.2</text>
            <text
               y="87.734398"
               xml:space="preserve"
               id="text233">1.4</text>
            <text
               y="39.140598"
               xml:space="preserve"
               id="text235">1.6</text>
          </g>
          <g
             fill="none"
             stroke="#000000"
             id="g241">
            <polyline
               points="590 10 590 470"
               fill="none"
               id="polyline239" />
          </g>
        </g>
      </g>
      <g
         font-family="Ubuntu"
         font-size="12px"
         font-weight="400"
         stroke="none"
         id="g249">
        <rect
           width="0"
           height="0"
           id="rect247"
           x="0"
           y="0" />
      </g>
    </g>
  </g>
  <metadata
     id="metadata255">
    <rdf:RDF>
      <cc:Work
         rdf:about="">
        <dc:title>pyqtgraph SVG export</dc:title>
      </cc:Work>
    </rdf:RDF>
  </metadata>
</svg>
