<?xml version="1.0" encoding="UTF-8" standalone="no"?>
<svg xmlns="http://www.w3.org/2000/svg" xmlns:xlink="http://www.w3.org/1999/xlink"  version="1.2" baseProfile="tiny" viewBox ="0 0 600 500">
<title>pyqtgraph SVG export</title>
<desc>Generated with Qt and pyqtgraph</desc>
<style>
    image {
        image-rendering: crisp-edges;
        image-rendering: -moz-crisp-edges;
        image-rendering: pixelated;
    }
</style>
<rect width="100%" height="100%" fill="#ffffff" fill-opacity="1.0" />
<defs>
</defs>
<g id="GraphicsScene_1">
    <g fill="none" stroke="black" stroke-width="1" fill-rule="evenodd" stroke-linecap="square" stroke-linejoin="bevel" id="GraphicsLayout_1">
        <g fill="none" stroke="black" stroke-width="1" fill-rule="evenodd" stroke-linecap="square" stroke-linejoin="bevel" id="Axis2D_1">
            <g fill="none" stroke="black" stroke-width="1" fill-rule="evenodd" stroke-linecap="square" stroke-linejoin="bevel" id="ViewBox_1">
                <g fill="none" stroke="none" font-family="Ubuntu" font-size="12" font-weight="400" font-style="normal">
                    <path fill-rule="evenodd" d="M31.4688,10.0 L590.4997999999999,10.0 L590.4997999999999,470.5 L31.4688,470.5 L31.4688,10.0 "/>
                </g>
                <clipPath id="ViewBox_1_clip">
                    <path vector-effect="none" fill-rule="evenodd" d="M31.4688,10.0 L590.5,10.0 L590.5,470.5 L31.4688,470.5 L31.4688,10.0 " stroke-width="1.0"/>
                </clipPath>
                <g clip-path="url(#ViewBox_1_clip)">
                    <g fill="none" stroke="black" stroke-width="1" fill-rule="evenodd" stroke-linecap="square" stroke-linejoin="bevel" id="ChildGroup_1">
                        <g fill="none" stroke="black" stroke-width="1" fill-rule="evenodd" stroke-linecap="square" stroke-linejoin="bevel" id="PlotDataItem_1">
                            <g fill="none" stroke="black" stroke-width="1" fill-rule="evenodd" stroke-linecap="square" stroke-linejoin="bevel" id="PlotCurveItem_1">
                                <g fill="none" stroke="#0071bc" stroke-opacity="1" stroke-width="2" stroke-linecap="square" stroke-linejoin="bevel" font-family="Ubuntu" font-size="12" font-weight="400" font-style="normal">
                                    <path fill-rule="evenodd" d="M47.49980000000001,254.339 L46.29879122499999,259.817214825 L45.392605426,265.27650167499996 L44.772687472000015,270.7134191 L44.433772667000014,276.1256728 L44.367963966999994,281.5103949 L44.569996676,286.8652911 L45.03263183700001,292.18691995 L45.74863049299999,297.47298715 L46.71206986100002,302.72005125 L47.915710984,307.926391525 L49.35297299200003,313.08856652500003 L51.017933101999986,318.20428195 L52.90269427,323.27009635 L55.001333712999994,328.284289 L57.30727056100001,333.242844875 L59.813923944000024,338.14404325 L62.513396818000004,342.98501625 L65.400424487,347.762322425 L68.46776799400003,352.47366747499996 L71.708846469,357.116183525 L75.11707904200001,361.6870027 L78.685226756,366.184404275 L82.406708741,370.60379965 L86.27560221400002,374.944041675 L90.285326305,379.2016889 L94.42798397,383.374447025 L98.697652426,387.4588746 L103.08775080299999,391.45210375 L107.59104014400002,395.35241375 L112.20159766600001,399.15636315 L116.912184412,402.861084075 L121.716877599,406.46428222500003 L126.607780183,409.96251615 L131.57896938099998,413.35406512500003 L136.62386432300002,416.6354877 L141.73522605200003,419.803916 L146.907131785,422.857055725 L152.132342565,425.791465425 L157.40427752200003,428.6053670175 L162.71701387299998,431.2953190525 L168.06265457400002,433.8587404425 L173.43461875500003,436.2928780275 L178.82764172000003,438.5949786475 L184.23316833800004,440.7622891425 L189.64593391300002,442.7920563525 L195.058699488,444.681584475 L200.46488419300005,446.42806299250003 L205.85790715800005,448.028738745 L211.23052942600003,449.4808585725 L216.576828214,450.7817266725 L221.889564565,451.9285325275 L227.16281569600005,452.918580335 L232.38868456300003,453.7490595775 L237.56190647,454.417217095 L242.67458437300002,454.920357085 L247.720795489,455.2558411025 L252.69790747000002,455.42430008 L257.60723649000005,455.4290607525 L262.448124462,455.27356457 L267.22320373400004,454.9612529825 L271.932474306,454.4955100825 L276.57659426500004,453.8797199625 L281.15687978500006,453.11738143 L285.673988953,452.211935935 L290.12857985600004,451.1667102125 L294.521968668,449.98520307 L298.854155389,448.6707986 L303.12711428000006,447.22699561 L307.341503428,445.657120835 L311.49798092,443.9646730825 L315.596546756,442.153036445 L319.639833284,440.2256523725 L323.62718241700003,438.185962315 L327.55991032900005,436.037350365 L331.439333194,433.7832579725 L335.2654510120001,431.4271265875 L339.040238044,428.97239766 L342.76369429000005,426.422397925 L346.43647783700004,423.780511475 L350.060562946,421.050294475 L353.63594961700005,418.23576195 L357.16329593700004,415.33920820000003 L360.644576167,412.36464825 L364.079790307,409.314949975 L367.46959644400005,406.194701975 L370.815310752,403.00619855 L374.11824940500003,399.753454725 L377.378412403,396.43991195 L380.59645783300004,393.069011675 L383.77435995600007,389.643621775 L386.912776859,386.167757275 L390.011708542,382.64428605 L393.07247117900005,379.077223125 L396.09572285700006,375.47000995 L399.08277975000004,371.8255144 L402.034958032,368.147177925 L404.951599616,364.43901555 L407.834678763,360.70446872499997 L410.68485356,356.94583175 L413.502782094,353.16826679999997 L416.28978053900005,349.3734946 L419.04650698200004,345.56610375 L421.77361951,341.74896212500005 L424.47177621000003,337.92608475 L427.1422932560001,334.09976592500004 L429.78582873500005,330.27459425 L432.4036988210001,326.45343760000003 L434.99590351399996,322.639737425 L437.564417075,318.83750875 L440.10923950399996,315.04904587500005 L442.631028888,311.27836382500004 L445.1311014010001,307.52833047499996 L447.6074827820001,303.7995194 L450.0588568570001,300.0919306 L452.484565539,296.40556407500003 L454.882634567,292.740419825 L457.25108968,289.09707142499997 L459.58927279100004,285.47609245 L461.89586772599995,281.87633575 L464.1695583110001,278.298948475 L466.40771219799996,274.74393062499996 L468.61032938700004,271.211855775 L470.775435617,267.70157677500004 L472.901714714,264.214240775 L474.98785050400005,260.75042135 L477.031868726,257.30897135 L479.033111293,253.891037925 L480.98960394400007,250.496621075 L482.90003050499996,247.1257208 L484.7637328890001,243.7783371 L486.5780787480001,240.45504354999997 L488.3424099950001,237.15584015000002 L490.05541045600006,233.8807269 L491.71510587000006,230.630277375 L493.32083815000004,227.40391800000003 L494.870633035,224.20222235 L496.36317435099994,221.02576399999998 L497.79714592400006,217.873969375 L499.1712315800001,214.74741204999998 L500.4841151450001,211.64609202500003 L501.73382235800005,208.57000930000004 L502.9190370449999,205.51973744999998 L504.039101119,202.49527647499997 L505.092040319,199.49719994999998 L506.076538471,196.524360725 L506.99062131400007,193.57847952499998 L507.83428884799997,190.65898277500003 L508.60490872500003,187.76587047500004 L509.30116477099995,184.89914262499997 L509.92239889900014,182.0593728 L510.46663684800006,179.24713457500002 L510.93190435699995,176.46185437499997 L511.31820142600003,173.70410577500002 L511.62289570700005,170.9733152 L511.845329113,168.2706298 L511.98418547,165.596049575 L512.0374905169999,162.94900094999997 L512.0032699929999,160.33063107499999 L511.881523898,157.73979279999998 L511.6702779710001,155.17820684999998 L511.36821603800007,152.644726075 L510.973363838,150.14049762499997 L510.4850632840001,147.66494792499998 L509.90068202799995,145.21807697499997 L509.22087815699996,142.80103192500002 L508.44236123599995,140.41323920000002 L507.564473178,138.05527237499996 L506.5885301570001,135.72713145 L505.5171645210001,133.43053714999996 L504.351692444,131.16663662499997 L503.09606244800005,128.935429875 L501.75159070699993,126.73863762500002 L500.320909569,124.57740702499996 L498.807309469,122.45173807499998 L497.212106581,120.363925075 L495.53859134,118.31396802500001 L493.78873800700006,116.30358765 L491.964520843,114.33278394999996 L490.06988837,112.40327765 L488.106156762,110.51621589999996 L486.07595836700006,108.67274584999996 L483.98192553300004,106.87286749999998 L481.82603252100006,105.117728 L479.61156976599995,103.40962164999996 L477.340511529,101.74797487499995 L475.015490158,100.13450839999996 L472.638479914,98.57036937499998 L470.21211314499993,97.05670494999998 L467.739680286,95.59351512500001 L465.2224975110001,94.182520625 L462.66319716800007,92.82429502500003 L460.065069692,91.52055904999997 L457.4294312570001,90.27188627499999 L454.759572298,89.07885027499998 L452.05812516299994,87.943171775 L449.32640602600003,86.86542435000001 L446.567705322,85.84675515000004 L443.7846553990001,84.88773774999999 L440.97923051800007,83.99009287500002 L438.15406302700006,83.15439409999999 L435.31112718700007,82.381215 L432.453713433,81.67227629999996 L429.583796026,81.02872514999996 L426.704007314,80.45056155000003 L423.8163215580001,79.939506225 L420.924029193,79.49613274999996 L418.02910448,79.12158827500002 L415.13417976700003,78.81701995000003 L412.241229315,78.583574925 L409.352885472,78.421826775 L406.47243867300006,78.33292265 L403.601205092,78.3180097 L400.741817077,78.37766149999999 L397.897565063,78.51302520000002 L395.06976522400004,78.72582152500001 L392.26170799500005,79.01605047499999 L389.47536763700003,79.3848592 L386.71403458500004,79.83396842499997 L383.979025013,80.36337815000002 L381.273629356,80.97480910000002 L378.59916378800006,81.66883485 L375.95957683100005,82.44660255000002 L373.35618465900006,83.30811219999998 L370.789645359,84.251643075 L368.26127510500004,85.27547444999999 L365.771731984,86.37673844999995 L363.32233217000004,87.55314077500003 L360.91307566300003,88.803534275 L358.545278637,90.12562464999996 L356.22025726600003,91.51654402499997 L353.93801155000006,92.97514525000003 L351.69985766300005,94.49856045000001 L349.50711177900007,96.08564247499999 L347.35911581100004,97.73294987500003 L345.258502107,99.439909075 L343.20527066700004,101.20307862499999 L341.200737665,103.0207378 L339.24490310100003,104.89116587500001 L337.339741236,106.81206854999999 L335.48525207000006,108.78172509999996 L333.68209369000004,110.79726764999998 L331.93224035700007,112.85697547500001 L330.235692071,114.95912785000002 L328.593765006,117.1008569 L327.00711724900003,119.28044189999997 L325.476406887,121.49616212500001 L324.002950094,123.74514970000001 L322.58674687000007,126.02625747499997 L321.22977147600005,128.336617575 L319.93268199900007,130.674509275 L318.695478439,133.03706469999997 L317.51947697,135.4231367 L316.405993766,137.830430975 L315.35568691400005,140.25665322499998 L314.36921450100004,142.70008272500002 L313.447892701,145.15785159999996 L312.591721514,147.62881270000003 L311.802017114,150.11009815 L311.079437588,152.599987225 L310.42529911,155.09618562500003 L309.840259767,157.59639905 L309.325635733,160.098906775 L308.88142700800006,162.601988075 L308.508949766,165.102775075 L308.20886209400004,167.59954704999996 L307.982480166,170.0900097 L307.82980398200004,172.57244229999998 L307.75280780300005,175.04455055 L307.75149162900004,177.503466575 L307.827171634,179.94861679999997 L307.98050590500003,182.37655977500003 L308.21281061600007,184.78614834999996 L308.52408576700003,187.17451465 L308.91564753200004,189.540511525 L309.388812085,191.88069752499996 L309.94357942600004,194.19392549999998 L310.58126572900005,196.47790115000004 L311.303187168,198.73090374999998 L312.107369482,200.951212575 L312.993154584,203.13882762500003 L313.95988438700005,205.29260174999996 L315.00558463,207.41196137499998 L316.128939139,209.496332925 L317.329289827,211.54456925 L318.604662433,213.55724392500002 L319.953740783,215.53206265 L321.37652487700007,217.46959899999996 L322.870382367,219.368705825 L324.43399707900005,221.22880955 L326.067369013,223.04876302499997 L327.767865821,224.82856625 L329.53482941600004,226.567072075 L331.367601711,228.263706925 L333.26355035800003,229.91847079999997 L335.22201727,231.529642975 L337.24234436000006,233.09722345000003 L339.322557367,234.62006507499999 L341.4613401170001,236.09816785 L343.658034523,237.53038462499998 L345.91066632400003,238.91556824999998 L348.218577433,240.25429229999997 L350.5797935890001,241.54483605 L352.99365670500003,242.78662592499998 L355.45885060700004,243.97966192500002 L357.97405912100004,245.1227969 L360.53730798600003,246.21545727499998 L363.148597202,247.2564959 L365.80529442100004,248.245912775 L368.50739964300004,249.18313432500003 L371.252938607,250.066439825 L374.039937052,250.89640285000002 L376.869053065,251.67187625 L379.7369962110001,252.391712875 L382.64376649,253.055912725 L385.588047728,253.66332865 L388.567865664,254.21396065 L391.581904124,254.70608800000002 L394.63016310800003,255.1397107 L397.7100102680001,255.51425517500002 L400.820787517,255.828574275 L403.96052059400006,256.082668 L407.129209499,256.2753892 L410.32487997100003,256.405590725 L413.54621583600004,256.47384615 L416.79190092000005,256.47843475 L420.060619049,256.419356525 L423.35171213600006,256.295464325 L426.66320592,256.106184575 L429.99378422700005,255.8509437 L433.3427889700001,255.52859455 L436.708245888,255.139137125 L440.0894968940001,254.68199785000002 L443.485225814,254.156029575 L446.89345838700007,253.5612323 L450.31090417799993,252.8981796 L453.7362470130001,252.16744505 L457.16553837,251.37074937499997 L460.59614590099994,250.507519 L464.026095345,249.57947465 L467.45209626700006,248.58718990000003 L470.8708582320001,247.531238325 L474.28106506600005,246.41219349999997 L477.6794263340001,245.23120257500003 L481.062651601,243.98883912499997 L484.428766606,242.685676725 L487.7744809140001,241.32286252499998 L491.09716217700003,239.90097010000002 L494.394178047,238.41999944999998 L497.66289617599995,236.88224487499997 L500.900684216,235.2871328 L504.10490981900006,233.63638394999998 L507.27228255000006,231.92999832499999 L510.400170061,230.16912307500002 L513.486598091,228.354331775 L516.5276181180001,226.486198 L519.5219139679999,224.5658689 L522.465537119,222.594491625 L525.35651331,220.5714926 L528.1922101929999,218.49859255 L530.968679246,216.37693862499998 L533.684604295,214.20595724999998 L536.3366949050001,211.98736915 L538.9223187279999,209.72174790000003 L541.4388434159999,207.41024065 L543.883636621,205.05227382500004 L546.253407908,202.65014172500003 L548.5455249290001,200.20384435 L550.757355336,197.713955275 L552.8869248679999,195.18162164999995 L554.930285003,192.60741704999998 L556.886119567,189.99248862499996 L558.750480038,187.33683637500002 L560.520734068,184.64218102499996 L562.194907396,181.90794899999997 L563.769709587,179.13643460000003 L565.242508293,176.32706424999998 L566.610671166,173.48155867500003 L567.8715658579999,170.59991787500002 L569.022560021,167.683289 L570.06036322,164.73224562500002 L570.982343107,161.74793490000002 L571.786525421,158.73093039999998 L572.4696197269999,155.681232125 L573.0289936769999,152.60113437500002 L573.4613568359999,149.49006357500002 L573.76539303,146.34916687500004 L573.93649565,143.17901784999998 L573.97598087,139.981337225 L573.873977385,136.75555142499996 L573.636407978,133.50624905 L573.262614562,130.236297975 L572.753255224,126.94971322499998 L572.1076718769999,123.65050982500003 L571.3278387820001,120.34155565000003 L570.413755939,117.02743930000003 L569.366081435,113.71160222499998 L568.185473357,110.3969123 L566.872589792,107.08853169999998 L565.42743074,103.78932829999997 L563.8513123749999,100.50331712499997 L562.1442346969999,97.233939625 L560.30751388,93.98521082500002 L558.341149924,90.76114575000003 L556.2458009159999,87.564612275 L554.022124943,84.39962542500001 L551.670780092,81.270200225 L549.191766363,78.17977812499998 L546.5870580169999,75.13237414999998 L543.855996967,72.13200332500003 L540.999899387,69.18095994999999 L538.0187652769999,66.28497977500001 L534.9139108109999,63.445783525000024 L531.684677902,60.66853337499998 L528.333040811,57.95667077500002 L524.858999538,55.313063599999964 L521.26321217,52.74287402499999 L517.545678707,50.24839634999995 L513.70837341,47.83421917499999 L509.75063819200005,45.50378395000001 L505.67313113999995,43.26110569999997 L501.4771684280001,41.109625875000006 L497.162750056,39.05278592500002 L492.73053411100005,37.09517445 L488.181836767,35.23965932499999 L483.515999937,33.49025557499999 L478.73433979500004,31.850404649999973 L473.83751442800013,30.324121574999992 L468.8261819230001,28.915421374999994 L463.70034228000003,27.627745499999946 L458.461311673,26.465108974999964 L453.1097481890001,25.430379674999983 L447.64499374100006,24.528146199999924 L442.0690225900001,23.761850000000038 L436.381176649,23.13493252500001 L430.583430179,22.651408799999956 L424.675125093,22.314720275000013 L418.65823565200003,22.128881975000013 L412.53210376900006,22.097908924999956 L406.2973875310001,22.22524257500004 L399.95540311200006,22.51375079999997 L393.50615051200003,22.968595774999983 L386.950945905,23.592645375000018 L380.28978929100003,24.38991462499996 L373.52333875700003,25.363844975000006 L366.654884738,26.51500999999996 L359.69232427800006,27.83996824999997 L352.64289633400006,29.334704699999975 L345.513839863,30.99692504999996 L338.31239382200005,32.822040699999945 L331.045797168,34.806610199999966 L323.720630771,36.94776567499997 L316.3461078490001,39.241492100000016 L308.92749309800007,41.68434802499996 L301.4733416490001,44.27289200000001 L293.990892459,47.00368257499997 L286.48672639800003,49.872704725000006 L278.96874051000003,52.87709057500001 L271.444831839,56.012825099999986 L263.920923168,59.27646684999996 L256.40491154100005,62.66457437499997 L248.90469400200004,66.17370622499999 L241.42685142100004,69.80042094999999 L233.97928084200004,73.54070352500003 L226.56856313500003,77.391686075 L219.20259534400003,81.34935357499995 L211.88795833900002,85.41083815000002 L204.63320725100004,89.57155119999999 L197.44492295000003,93.82862484999998 L190.33034439300002,98.17861764999998 L183.29671053700002,102.61808815 L176.35191842600005,107.14302132499995 L169.50320701700002,111.74997572500001 L162.756499093,116.43608347499998 L156.121007872,121.19732955 L149.60331422400003,126.02969892499999 L143.209999019,130.930323725 L136.94961738799998,135.8957625 L130.82875020100005,140.92200022500003 L124.85463641500003,146.00616902500002 L119.03517307400001,151.14368030000003 L113.376941048,156.33223974999999 L107.88783738100001,161.56725877500003 L102.574442943,166.84644307500002 L97.44531286500002,172.16520405 L92.50636993000002,177.52010024999998 L87.76616926900003,182.9082638 L83.23063366499998,188.32510609999997 L78.90897633600001,193.76833284999998 L74.806461978,199.233929025 L70.931645722,204.7178796 L67.291766525,210.21731670000003 L63.894063344,215.728798875 L60.745117049,221.247737525 L57.853482771,226.77183835 L55.22574138,232.297086325 L52.869131833,237.82003999999998 L50.790893086999986,243.33668435 L48.998922186,248.8441515 L47.49980000000001,254.339 "/>
                                </g>
                            </g>
                        </g>
                        <g fill="none" stroke="black" stroke-width="1" fill-rule="evenodd" stroke-linecap="square" stroke-linejoin="bevel" id="PlotDataItem_2">
                            <g fill="none" stroke="black" stroke-width="1" fill-rule="evenodd" stroke-linecap="square" stroke-linejoin="bevel" id="PlotCurveItem_2">
                                <g fill="none" stroke="#d85218" stroke-opacity="1" stroke-dasharray="8,4" stroke-dashoffset="0" stroke-width="2" stroke-linecap="square" stroke-linejoin="bevel" font-family="Ubuntu" font-size="12" font-weight="400" font-style="normal">
                                    <path fill-rule="evenodd" d="M47.49980000000001,254.339 L46.29879122499999,259.817214825 L45.392605426,265.27650167499996 L44.772687472000015,270.7134191 L44.433772667000014,276.1256728 L44.367963966999994,281.5103949 L44.569996676,286.8652911 L45.03263183700001,292.18691995 L45.74863049299999,297.47298715 L46.71206986100002,302.72005125 L47.915710984,307.926391525 L49.35297299200003,313.08856652500003 L51.017933101999986,318.20428195 L52.90269427,323.27009635 L55.001333712999994,328.284289 L57.30727056100001,333.242844875 L59.813923944000024,338.14404325 L62.513396818000004,342.98501625 L65.400424487,347.762322425 L68.46776799400003,352.47366747499996 L71.708846469,357.116183525 L75.11707904200001,361.6870027 L78.685226756,366.184404275 L82.406708741,370.60379965 L86.27560221400002,374.944041675 L90.285326305,379.2016889 L94.42798397,383.374447025 L98.697652426,387.4588746 L103.08775080299999,391.45210375 L107.59104014400002,395.35241375 L112.20159766600001,399.15636315 L116.912184412,402.861084075 L121.716877599,406.46428222500003 L126.607780183,409.96251615 L131.57896938099998,413.35406512500003 L136.62386432300002,416.6354877 L141.73522605200003,419.803916 L146.907131785,422.857055725 L152.132342565,425.791465425 L157.40427752200003,428.6053670175 L162.71701387299998,431.2953190525 L168.06265457400002,433.8587404425 L173.43461875500003,436.2928780275 L178.82764172000003,438.5949786475 L184.23316833800004,440.7622891425 L189.64593391300002,442.7920563525 L195.058699488,444.681584475 L200.46488419300005,446.42806299250003 L205.85790715800005,448.028738745 L211.23052942600003,449.4808585725 L216.576828214,450.7817266725 L221.889564565,451.9285325275 L227.16281569600005,452.918580335 L232.38868456300003,453.7490595775 L237.56190647,454.417217095 L242.67458437300002,454.920357085 L247.720795489,455.2558411025 L252.69790747000002,455.42430008 L257.60723649000005,455.4290607525 L262.448124462,455.27356457 L267.22320373400004,454.9612529825 L271.932474306,454.4955100825 L276.57659426500004,453.8797199625 L281.15687978500006,453.11738143 L285.673988953,452.211935935 L290.12857985600004,451.1667102125 L294.521968668,449.98520307 L298.854155389,448.6707986 L303.12711428000006,447.22699561 L307.341503428,445.657120835 L311.49798092,443.9646730825 L315.596546756,442.153036445 L319.639833284,440.2256523725 L323.62718241700003,438.185962315 L327.55991032900005,436.037350365 L331.439333194,433.7832579725 L335.2654510120001,431.4271265875 L339.040238044,428.97239766 L342.76369429000005,426.422397925 L346.43647783700004,423.780511475 L350.060562946,421.050294475 L353.63594961700005,418.23576195 L357.16329593700004,415.33920820000003 L360.644576167,412.36464825 L364.079790307,409.314949975 L367.46959644400005,406.194701975 L370.815310752,403.00619855 L374.11824940500003,399.753454725 L377.378412403,396.43991195 L380.59645783300004,393.069011675 L383.77435995600007,389.643621775 L386.912776859,386.167757275 L390.011708542,382.64428605 L393.07247117900005,379.077223125 L396.09572285700006,375.47000995 L399.08277975000004,371.8255144 L402.034958032,368.147177925 L404.951599616,364.43901555 L407.834678763,360.70446872499997 L410.68485356,356.94583175 L413.502782094,353.16826679999997 L416.28978053900005,349.3734946 L419.04650698200004,345.56610375 L421.77361951,341.74896212500005 L424.47177621000003,337.92608475 L427.1422932560001,334.09976592500004 L429.78582873500005,330.27459425 L432.4036988210001,326.45343760000003 L434.99590351399996,322.639737425 L437.564417075,318.83750875 L440.10923950399996,315.04904587500005 L442.631028888,311.27836382500004 L445.1311014010001,307.52833047499996 L447.6074827820001,303.7995194 L450.0588568570001,300.0919306 L452.484565539,296.40556407500003 L454.882634567,292.740419825 L457.25108968,289.09707142499997 L459.58927279100004,285.47609245 L461.89586772599995,281.87633575 L464.1695583110001,278.298948475 L466.40771219799996,274.74393062499996 L468.61032938700004,271.211855775 L470.775435617,267.70157677500004 L472.901714714,264.214240775 L474.98785050400005,260.75042135 L477.031868726,257.30897135 L479.033111293,253.891037925 L480.98960394400007,250.496621075 L482.90003050499996,247.1257208 L484.7637328890001,243.7783371 L486.5780787480001,240.45504354999997 L488.3424099950001,237.15584015000002 L490.05541045600006,233.8807269 L491.71510587000006,230.630277375 L493.32083815000004,227.40391800000003 L494.870633035,224.20222235 L496.36317435099994,221.02576399999998 L497.79714592400006,217.873969375 L499.1712315800001,214.74741204999998 L500.4841151450001,211.64609202500003 L501.73382235800005,208.57000930000004 L502.9190370449999,205.51973744999998 L504.039101119,202.49527647499997 L505.092040319,199.49719994999998 L506.076538471,196.524360725 L506.99062131400007,193.57847952499998 L507.83428884799997,190.65898277500003 L508.60490872500003,187.76587047500004 L509.30116477099995,184.89914262499997 L509.92239889900014,182.0593728 L510.46663684800006,179.24713457500002 L510.93190435699995,176.46185437499997 L511.31820142600003,173.70410577500002 L511.62289570700005,170.9733152 L511.845329113,168.2706298 L511.98418547,165.596049575 L512.0374905169999,162.94900094999997 L512.0032699929999,160.33063107499999 L511.881523898,157.73979279999998 L511.6702779710001,155.17820684999998 L511.36821603800007,152.644726075 L510.973363838,150.14049762499997 L510.4850632840001,147.66494792499998 L509.90068202799995,145.21807697499997 L509.22087815699996,142.80103192500002 L508.44236123599995,140.41323920000002 L507.564473178,138.05527237499996 L506.5885301570001,135.72713145 L505.5171645210001,133.43053714999996 L504.351692444,131.16663662499997 L503.09606244800005,128.935429875 L501.75159070699993,126.73863762500002 L500.320909569,124.57740702499996 L498.807309469,122.45173807499998 L497.212106581,120.363925075 L495.53859134,118.31396802500001 L493.78873800700006,116.30358765 L491.964520843,114.33278394999996 L490.06988837,112.40327765 L488.106156762,110.51621589999996 L486.07595836700006,108.67274584999996 L483.98192553300004,106.87286749999998 L481.82603252100006,105.117728 L479.61156976599995,103.40962164999996 L477.340511529,101.74797487499995 L475.015490158,100.13450839999996 L472.638479914,98.57036937499998 L470.21211314499993,97.05670494999998 L467.739680286,95.59351512500001 L465.2224975110001,94.182520625 L462.66319716800007,92.82429502500003 L460.065069692,91.52055904999997 L457.4294312570001,90.27188627499999 L454.759572298,89.07885027499998 L452.05812516299994,87.943171775 L449.32640602600003,86.86542435000001 L446.567705322,85.84675515000004 L443.7846553990001,84.88773774999999 L440.97923051800007,83.99009287500002 L438.15406302700006,83.15439409999999 L435.31112718700007,82.381215 L432.453713433,81.67227629999996 L429.583796026,81.02872514999996 L426.704007314,80.45056155000003 L423.8163215580001,79.939506225 L420.924029193,79.49613274999996 L418.02910448,79.12158827500002 L415.13417976700003,78.81701995000003 L412.241229315,78.583574925 L409.352885472,78.421826775 L406.47243867300006,78.33292265 L403.601205092,78.3180097 L400.741817077,78.37766149999999 L397.897565063,78.51302520000002 L395.06976522400004,78.72582152500001 L392.26170799500005,79.01605047499999 L389.47536763700003,79.3848592 L386.71403458500004,79.83396842499997 L383.979025013,80.36337815000002 L381.273629356,80.97480910000002 L378.59916378800006,81.66883485 L375.95957683100005,82.44660255000002 L373.35618465900006,83.30811219999998 L370.789645359,84.251643075 L368.26127510500004,85.27547444999999 L365.771731984,86.37673844999995 L363.32233217000004,87.55314077500003 L360.91307566300003,88.803534275 L358.545278637,90.12562464999996 L356.22025726600003,91.51654402499997 L353.93801155000006,92.97514525000003 L351.69985766300005,94.49856045000001 L349.50711177900007,96.08564247499999 L347.35911581100004,97.73294987500003 L345.258502107,99.439909075 L343.20527066700004,101.20307862499999 L341.200737665,103.0207378 L339.24490310100003,104.89116587500001 L337.339741236,106.81206854999999 L335.48525207000006,108.78172509999996 L333.68209369000004,110.79726764999998 L331.93224035700007,112.85697547500001 L330.235692071,114.95912785000002 L328.593765006,117.1008569 L327.00711724900003,119.28044189999997 L325.476406887,121.49616212500001 L324.002950094,123.74514970000001 L322.58674687000007,126.02625747499997 L321.22977147600005,128.336617575 L319.93268199900007,130.674509275 L318.695478439,133.03706469999997 L317.51947697,135.4231367 L316.405993766,137.830430975 L315.35568691400005,140.25665322499998 L314.36921450100004,142.70008272500002 L313.447892701,145.15785159999996 L312.591721514,147.62881270000003 L311.802017114,150.11009815 L311.079437588,152.599987225 L310.42529911,155.09618562500003 L309.840259767,157.59639905 L309.325635733,160.098906775 L308.88142700800006,162.601988075 L308.508949766,165.102775075 L308.20886209400004,167.59954704999996 L307.982480166,170.0900097 L307.82980398200004,172.57244229999998 L307.75280780300005,175.04455055 L307.75149162900004,177.503466575 L307.827171634,179.94861679999997 L307.98050590500003,182.37655977500003 L308.21281061600007,184.78614834999996 L308.52408576700003,187.17451465 L308.91564753200004,189.540511525 L309.388812085,191.88069752499996 L309.94357942600004,194.19392549999998 L310.58126572900005,196.47790115000004 L311.303187168,198.73090374999998 L312.107369482,200.951212575 L312.993154584,203.13882762500003 L313.95988438700005,205.29260174999996 L315.00558463,207.41196137499998 L316.128939139,209.496332925 L317.329289827,211.54456925 L318.604662433,213.55724392500002 L319.953740783,215.53206265 L321.37652487700007,217.46959899999996 L322.870382367,219.368705825 L324.43399707900005,221.22880955 L326.067369013,223.04876302499997 L327.767865821,224.82856625 L329.53482941600004,226.567072075 L331.367601711,228.263706925 L333.26355035800003,229.91847079999997 L335.22201727,231.529642975 L337.24234436000006,233.09722345000003 L339.322557367,234.62006507499999 L341.4613401170001,236.09816785 L343.658034523,237.53038462499998 L345.91066632400003,238.91556824999998 L348.218577433,240.25429229999997 L350.5797935890001,241.54483605 L352.99365670500003,242.78662592499998 L355.45885060700004,243.97966192500002 L357.97405912100004,245.1227969 L360.53730798600003,246.21545727499998 L363.148597202,247.2564959 L365.80529442100004,248.245912775 L368.50739964300004,249.18313432500003 L371.252938607,250.066439825 L374.039937052,250.89640285000002 L376.869053065,251.67187625 L379.7369962110001,252.391712875 L382.64376649,253.055912725 L385.588047728,253.66332865 L388.567865664,254.21396065 L391.581904124,254.70608800000002 L394.63016310800003,255.1397107 L397.7100102680001,255.51425517500002 L400.820787517,255.828574275 L403.96052059400006,256.082668 L407.129209499,256.2753892 L410.32487997100003,256.405590725 L413.54621583600004,256.47384615 L416.79190092000005,256.47843475 L420.060619049,256.419356525 L423.35171213600006,256.295464325 L426.66320592,256.106184575 L429.99378422700005,255.8509437 L433.3427889700001,255.52859455 L436.708245888,255.139137125 L440.0894968940001,254.68199785000002 L443.485225814,254.156029575 L446.89345838700007,253.5612323 L450.31090417799993,252.8981796 L453.7362470130001,252.16744505 L457.16553837,251.37074937499997 L460.59614590099994,250.507519 L464.026095345,249.57947465 L467.45209626700006,248.58718990000003 L470.8708582320001,247.531238325 L474.28106506600005,246.41219349999997 L477.6794263340001,245.23120257500003 L481.062651601,243.98883912499997 L484.428766606,242.685676725 L487.7744809140001,241.32286252499998 L491.09716217700003,239.90097010000002 L494.394178047,238.41999944999998 L497.66289617599995,236.88224487499997 L500.900684216,235.2871328 L504.10490981900006,233.63638394999998 L507.27228255000006,231.92999832499999 L510.400170061,230.16912307500002 L513.486598091,228.354331775 L516.5276181180001,226.486198 L519.5219139679999,224.5658689 L522.465537119,222.594491625 L525.35651331,220.5714926 L528.1922101929999,218.49859255 L530.968679246,216.37693862499998 L533.684604295,214.20595724999998 L536.3366949050001,211.98736915 L538.9223187279999,209.72174790000003 L541.4388434159999,207.41024065 L543.883636621,205.05227382500004 L546.253407908,202.65014172500003 L548.5455249290001,200.20384435 L550.757355336,197.713955275 L552.8869248679999,195.18162164999995 L554.930285003,192.60741704999998 L556.886119567,189.99248862499996 L558.750480038,187.33683637500002 L560.520734068,184.64218102499996 L562.194907396,181.90794899999997 L563.769709587,179.13643460000003 L565.242508293,176.32706424999998 L566.610671166,173.48155867500003 L567.8715658579999,170.59991787500002 L569.022560021,167.683289 L570.06036322,164.73224562500002 L570.982343107,161.74793490000002 L571.786525421,158.73093039999998 L572.4696197269999,155.681232125 L573.0289936769999,152.60113437500002 L573.4613568359999,149.49006357500002 L573.76539303,146.34916687500004 L573.93649565,143.17901784999998 L573.97598087,139.981337225 L573.873977385,136.75555142499996 L573.636407978,133.50624905 L573.262614562,130.236297975 L572.753255224,126.94971322499998 L572.1076718769999,123.65050982500003 L571.3278387820001,120.34155565000003 L570.413755939,117.02743930000003 L569.366081435,113.71160222499998 L568.185473357,110.3969123 L566.872589792,107.08853169999998 L565.42743074,103.78932829999997 L563.8513123749999,100.50331712499997 L562.1442346969999,97.233939625 L560.30751388,93.98521082500002 L558.341149924,90.76114575000003 L556.2458009159999,87.564612275 L554.022124943,84.39962542500001 L551.670780092,81.270200225 L549.191766363,78.17977812499998 L546.5870580169999,75.13237414999998 L543.855996967,72.13200332500003 L540.999899387,69.18095994999999 L538.0187652769999,66.28497977500001 L534.9139108109999,63.445783525000024 L531.684677902,60.66853337499998 L528.333040811,57.95667077500002 L524.858999538,55.313063599999964 L521.26321217,52.74287402499999 L517.545678707,50.24839634999995 L513.70837341,47.83421917499999 L509.75063819200005,45.50378395000001 L505.67313113999995,43.26110569999997 L501.4771684280001,41.109625875000006 L497.162750056,39.05278592500002 L492.73053411100005,37.09517445 L488.181836767,35.23965932499999 L483.515999937,33.49025557499999 L478.73433979500004,31.850404649999973 L473.83751442800013,30.324121574999992 L468.8261819230001,28.915421374999994 L463.70034228000003,27.627745499999946 L458.461311673,26.465108974999964 L453.1097481890001,25.430379674999983 L447.64499374100006,24.528146199999924 L442.0690225900001,23.761850000000038 L436.381176649,23.13493252500001 L430.583430179,22.651408799999956 L424.675125093,22.314720275000013 L418.65823565200003,22.128881975000013 L412.53210376900006,22.097908924999956 L406.2973875310001,22.22524257500004 L399.95540311200006,22.51375079999997 L393.50615051200003,22.968595774999983 L386.950945905,23.592645375000018 L380.28978929100003,24.38991462499996 L373.52333875700003,25.363844975000006 L366.654884738,26.51500999999996 L359.69232427800006,27.83996824999997 L352.64289633400006,29.334704699999975 L345.513839863,30.99692504999996 L338.31239382200005,32.822040699999945 L331.045797168,34.806610199999966 L323.720630771,36.94776567499997 L316.3461078490001,39.241492100000016 L308.92749309800007,41.68434802499996 L301.4733416490001,44.27289200000001 L293.990892459,47.00368257499997 L286.48672639800003,49.872704725000006 L278.96874051000003,52.87709057500001 L271.444831839,56.012825099999986 L263.920923168,59.27646684999996 L256.40491154100005,62.66457437499997 L248.90469400200004,66.17370622499999 L241.42685142100004,69.80042094999999 L233.97928084200004,73.54070352500003 L226.56856313500003,77.391686075 L219.20259534400003,81.34935357499995 L211.88795833900002,85.41083815000002 L204.63320725100004,89.57155119999999 L197.44492295000003,93.82862484999998 L190.33034439300002,98.17861764999998 L183.29671053700002,102.61808815 L176.35191842600005,107.14302132499995 L169.50320701700002,111.74997572500001 L162.756499093,116.43608347499998 L156.121007872,121.19732955 L149.60331422400003,126.02969892499999 L143.209999019,130.930323725 L136.94961738799998,135.8957625 L130.82875020100005,140.92200022500003 L124.85463641500003,146.00616902500002 L119.03517307400001,151.14368030000003 L113.376941048,156.33223974999999 L107.88783738100001,161.56725877500003 L102.574442943,166.84644307500002 L97.44531286500002,172.16520405 L92.50636993000002,177.52010024999998 L87.76616926900003,182.9082638 L83.23063366499998,188.32510609999997 L78.90897633600001,193.76833284999998 L74.806461978,199.233929025 L70.931645722,204.7178796 L67.291766525,210.21731670000003 L63.894063344,215.728798875 L60.745117049,221.247737525 L57.853482771,226.77183835 L55.22574138,232.297086325 L52.869131833,237.82003999999998 L50.790893086999986,243.33668435 L48.998922186,248.8441515 L47.49980000000001,254.339 "/>
                                </g>
                            </g>
                        </g>
                        <g fill="none" stroke="black" stroke-width="1" fill-rule="evenodd" stroke-linecap="square" stroke-linejoin="bevel" id="PlotDataItem_3">
                            <g fill="none" stroke="black" stroke-width="1" fill-rule="evenodd" stroke-linecap="square" stroke-linejoin="bevel" id="ScatterPlotItem_1">
                                <g fill="#ff0000" fill-opacity="1" stroke="#ff0000" stroke-opacity="1" stroke-width="1" stroke-linecap="square" stroke-linejoin="bevel" font-family="Ubuntu" font-size="12" font-weight="400" font-style="normal">
                                    <path fill-rule="evenodd" d="M50.4997,254.339 C50.4997,255.99585199999999 49.156552,257.339 47.4997,257.339 C45.842848,257.339 44.4997,255.99585199999999 44.4997,254.339 C44.4997,252.682148 45.842848,251.339 47.4997,251.339 C49.156552,251.339 50.4997,252.682148 50.4997,254.339 "/>
                                </g>
                                <g fill="#ff0000" fill-opacity="1" stroke="#ff0000" stroke-opacity="1" stroke-width="1" stroke-linecap="square" stroke-linejoin="bevel" font-family="Ubuntu" font-size="12" font-weight="400" font-style="normal">
                                    <path fill-rule="evenodd" d="M247.926,455.091 C247.926,456.747852 246.58285199999997,458.091 244.926,458.091 C243.269148,458.091 241.926,456.747852 241.926,455.091 C241.926,453.434148 243.269148,452.091 244.926,452.091 C246.58285199999997,452.091 247.926,453.434148 247.926,455.091 "/>
                                </g>
                                <g fill="#ff0000" fill-opacity="1" stroke="#ff0000" stroke-opacity="1" stroke-width="1" stroke-linecap="square" stroke-linejoin="bevel" font-family="Ubuntu" font-size="12" font-weight="400" font-style="normal">
                                    <path fill-rule="evenodd" d="M445.352,311.697 C445.352,313.353852 444.008852,314.697 442.352,314.697 C440.69514799999996,314.697 439.352,313.353852 439.352,311.697 C439.352,310.040148 440.69514799999996,308.697 442.352,308.697 C444.008852,308.697 445.352,310.040148 445.352,311.697 "/>
                                </g>
                                <g fill="#ff0000" fill-opacity="1" stroke="#ff0000" stroke-opacity="1" stroke-width="1" stroke-linecap="square" stroke-linejoin="bevel" font-family="Ubuntu" font-size="12" font-weight="400" font-style="normal">
                                    <path fill-rule="evenodd" d="M511.16,139.624 C511.16,141.28085199999998 509.81685200000004,142.624 508.16,142.624 C506.503148,142.624 505.16,141.28085199999998 505.16,139.624 C505.16,137.967148 506.503148,136.624 508.16,136.624 C509.81685200000004,136.624 511.16,137.967148 511.16,139.624 "/>
                                </g>
                                <g fill="#ff0000" fill-opacity="1" stroke="#ff0000" stroke-opacity="1" stroke-width="1" stroke-linecap="square" stroke-linejoin="bevel" font-family="Ubuntu" font-size="12" font-weight="400" font-style="normal">
                                    <path fill-rule="evenodd" d="M379.543,82.2669 C379.543,83.92375200000001 378.199852,85.2669 376.543,85.2669 C374.886148,85.2669 373.543,83.92375200000001 373.543,82.2669 C373.543,80.610048 374.886148,79.2669 376.543,79.2669 C378.199852,79.2669 379.543,80.610048 379.543,82.2669 "/>
                                </g>
                                <g fill="#ff0000" fill-opacity="1" stroke="#ff0000" stroke-opacity="1" stroke-width="1" stroke-linecap="square" stroke-linejoin="bevel" font-family="Ubuntu" font-size="12" font-weight="400" font-style="normal">
                                    <path fill-rule="evenodd" d="M313.734,196.982 C313.734,198.63885199999999 312.390852,199.982 310.734,199.982 C309.07714799999997,199.982 307.734,198.63885199999999 307.734,196.982 C307.734,195.325148 309.07714799999997,193.982 310.734,193.982 C312.390852,193.982 313.734,195.325148 313.734,196.982 "/>
                                </g>
                                <g fill="#ff0000" fill-opacity="1" stroke="#ff0000" stroke-opacity="1" stroke-width="1" stroke-linecap="square" stroke-linejoin="bevel" font-family="Ubuntu" font-size="12" font-weight="400" font-style="normal">
                                    <path fill-rule="evenodd" d="M445.352,254.339 C445.352,255.99585199999999 444.008852,257.339 442.352,257.339 C440.69514799999996,257.339 439.352,255.99585199999999 439.352,254.339 C439.352,252.682148 440.69514799999996,251.339 442.352,251.339 C444.008852,251.339 445.352,252.682148 445.352,254.339 "/>
                                </g>
                                <g fill="#ff0000" fill-opacity="1" stroke="#ff0000" stroke-opacity="1" stroke-width="1" stroke-linecap="square" stroke-linejoin="bevel" font-family="Ubuntu" font-size="12" font-weight="400" font-style="normal">
                                    <path fill-rule="evenodd" d="M576.969,139.624 C576.969,141.28085199999998 575.625852,142.624 573.969,142.624 C572.3121480000001,142.624 570.969,141.28085199999998 570.969,139.624 C570.969,137.967148 572.3121480000001,136.624 573.969,136.624 C575.625852,136.624 576.969,137.967148 576.969,139.624 "/>
                                </g>
                                <g fill="#ff0000" fill-opacity="1" stroke="#ff0000" stroke-opacity="1" stroke-width="1" stroke-linecap="square" stroke-linejoin="bevel" font-family="Ubuntu" font-size="12" font-weight="400" font-style="normal">
                                    <path fill-rule="evenodd" d="M379.543,24.9095 C379.543,26.566352000000002 378.199852,27.9095 376.543,27.9095 C374.886148,27.9095 373.543,26.566352000000002 373.543,24.9095 C373.543,23.252648 374.886148,21.9095 376.543,21.9095 C378.199852,21.9095 379.543,23.252648 379.543,24.9095 "/>
                                </g>
                                <g fill="#ff0000" fill-opacity="1" stroke="#ff0000" stroke-opacity="1" stroke-width="1" stroke-linecap="square" stroke-linejoin="bevel" font-family="Ubuntu" font-size="12" font-weight="400" font-style="normal">
                                    <path fill-rule="evenodd" d="M50.4997,254.339 C50.4997,255.99585199999999 49.156552,257.339 47.4997,257.339 C45.842848,257.339 44.4997,255.99585199999999 44.4997,254.339 C44.4997,252.682148 45.842848,251.339 47.4997,251.339 C49.156552,251.339 50.4997,252.682148 50.4997,254.339 "/>
                                </g>
                            </g>
                        </g>
                    </g>
                    <g fill="none" stroke="black" stroke-width="1" fill-rule="evenodd" stroke-linecap="square" stroke-linejoin="bevel" id="LegendItem_1">
                        <g fill="#ffffff" fill-opacity="0.784314" stroke="none" transform="matrix(1,0,0,1,32.4688,11)" font-family="Ubuntu" font-size="12" font-weight="400" font-style="normal">
                            <rect x="0" y="0" width="112.344" height="74"/>
                        </g>
                        <g fill="none" stroke="black" stroke-width="1" fill-rule="evenodd" stroke-linecap="square" stroke-linejoin="bevel" id="ItemSample_1">
                            <g fill="none" stroke="#0071bc" stroke-opacity="1" stroke-width="2" stroke-linecap="square" stroke-linejoin="bevel" font-family="Ubuntu" font-size="12" font-weight="400" font-style="normal">
                                <polyline fill="none" points="41.4688,32.0 61.4688,32.0"/>
                            </g>
                        </g>
                        <g fill="none" stroke="black" stroke-width="1" fill-rule="evenodd" stroke-linecap="square" stroke-linejoin="bevel" id="LabelItem_1">
                            <g fill="none" stroke="black" stroke-width="1" fill-rule="evenodd" stroke-linecap="square" stroke-linejoin="bevel" id="QGraphicsTextItem_1">
                                


                                


                                


                                <g fill="none" stroke="#000000" stroke-opacity="1" stroke-width="1" stroke-linecap="square" stroke-linejoin="bevel" transform="matrix(1,0,0,1,66.4688,20)" font-family="Ubuntu" font-size="12" font-weight="400" font-style="normal">
                                    <text fill="#000000" fill-opacity="1" stroke="none" xml:space="preserve" x="4" y="15.1719" font-family="Ubuntu" font-size="12" font-weight="400" font-style="normal">cubinterpp</text>
                                </g>
                                


                                

                            </g>
                        </g>
                        <g fill="none" stroke="black" stroke-width="1" fill-rule="evenodd" stroke-linecap="square" stroke-linejoin="bevel" id="ItemSample_2">
                            <g fill="none" stroke="#d85218" stroke-opacity="1" stroke-dasharray="8,4" stroke-dashoffset="0" stroke-width="2" stroke-linecap="square" stroke-linejoin="bevel" font-family="Ubuntu" font-size="12" font-weight="400" font-style="normal">
                                <polyline fill="none" points="41.4688,49.0 61.4688,49.0"/>
                            </g>
                        </g>
                        <g fill="none" stroke="black" stroke-width="1" fill-rule="evenodd" stroke-linecap="square" stroke-linejoin="bevel" id="LabelItem_2">
                            <g fill="none" stroke="black" stroke-width="1" fill-rule="evenodd" stroke-linecap="square" stroke-linejoin="bevel" id="QGraphicsTextItem_2">
                                


                                


                                


                                <g fill="none" stroke="#000000" stroke-opacity="1" stroke-width="1" stroke-linecap="square" stroke-linejoin="bevel" transform="matrix(1,0,0,1,66.4688,37)" font-family="Ubuntu" font-size="12" font-weight="400" font-style="normal">
                                    <text fill="#000000" fill-opacity="1" stroke="none" xml:space="preserve" x="4" y="15.1719" font-family="Ubuntu" font-size="12" font-weight="400" font-style="normal">scipy</text>
                                </g>
                                


                                

                            </g>
                        </g>
                        <g fill="none" stroke="black" stroke-width="1" fill-rule="evenodd" stroke-linecap="square" stroke-linejoin="bevel" id="ItemSample_3">
                            <g fill="none" stroke="none" font-family="Ubuntu" font-size="12" font-weight="400" font-style="normal">
                                <polyline fill="none" points="41.4688,66.0 61.4688,66.0"/>
                            </g>
                            <g fill="#ff0000" fill-opacity="1" stroke="#ff0000" stroke-opacity="1" stroke-width="1" stroke-linecap="square" stroke-linejoin="bevel" font-family="Ubuntu" font-size="12" font-weight="400" font-style="normal">
                                <path fill-rule="evenodd" d="M54.4688,65.0 C54.4688,66.656852 53.125652,68.0 51.4688,68.0 C49.811948,68.0 48.4688,66.656852 48.4688,65.0 C48.4688,63.343148 49.811948,62.0 51.4688,62.0 C53.125652,62.0 54.4688,63.343148 54.4688,65.0 "/>
                            </g>
                        </g>
                        <g fill="none" stroke="black" stroke-width="1" fill-rule="evenodd" stroke-linecap="square" stroke-linejoin="bevel" id="LabelItem_3">
                            <g fill="none" stroke="black" stroke-width="1" fill-rule="evenodd" stroke-linecap="square" stroke-linejoin="bevel" id="QGraphicsTextItem_3">
                                


                                


                                


                                <g fill="none" stroke="#000000" stroke-opacity="1" stroke-width="1" stroke-linecap="square" stroke-linejoin="bevel" transform="matrix(1,0,0,1,66.4688,54)" font-family="Ubuntu" font-size="12" font-weight="400" font-style="normal">
                                    <text fill="#000000" fill-opacity="1" stroke="none" xml:space="preserve" x="4" y="15.1719" font-family="Ubuntu" font-size="12" font-weight="400" font-style="normal">data points</text>
                                </g>
                                


                                

                            </g>
                        </g>
                    </g>
                    <g fill="none" stroke="black" stroke-width="1" fill-rule="evenodd" stroke-linecap="square" stroke-linejoin="bevel" id="QGraphicsRectItem_1">
                        <g fill="none" stroke="none" transform="matrix(1,0,0,1,31.4688,10)" font-family="Ubuntu" font-size="12" font-weight="400" font-style="normal">
                            <rect x="0" y="0" width="558.531" height="460"/>
                        </g>
                    </g>
                </g>
            </g>
            <g fill="none" stroke="black" stroke-width="1" fill-rule="evenodd" stroke-linecap="square" stroke-linejoin="bevel" id="AxisItem_1">
                <g fill="none" stroke="#000000" stroke-opacity="1" stroke-width="1" stroke-linecap="square" stroke-linejoin="bevel" font-family="Ubuntu" font-size="12" font-weight="400" font-style="normal">
                    <polyline fill="none" points="30.4688,9.0 590.9997999999999,9.0"/>
                </g>
                

            </g>
            <g fill="none" stroke="black" stroke-width="1" fill-rule="evenodd" stroke-linecap="square" stroke-linejoin="bevel" id="AxisItem_2">
                <g fill="none" stroke="#000000" stroke-opacity="1" stroke-width="1" stroke-linecap="square" stroke-linejoin="bevel" font-family="Ubuntu" font-size="12" font-weight="400" font-style="normal">
                    <polyline fill="none" points="30.4688,471.0 590.9997999999999,471.0"/>
                </g>
                <g fill="none" stroke="#000000" stroke-opacity="0.498039" stroke-width="1" stroke-linecap="square" stroke-linejoin="bevel" font-family="Ubuntu" font-size="12" font-weight="400" font-style="normal">
                    <polyline fill="none" points="47.4998,10.0 47.4998,470.0"/>
                    <polyline fill="none" points="179.1168,10.0 179.1168,470.0"/>
                    <polyline fill="none" points="310.7348,10.0 310.7348,470.0"/>
                    <polyline fill="none" points="442.35179999999997,10.0 442.35179999999997,470.0"/>
                    <polyline fill="none" points="573.9688,10.0 573.9688,470.0"/>
                </g>
                <g fill="none" stroke="#000000" stroke-opacity="0.247059" stroke-width="1" stroke-linecap="square" stroke-linejoin="bevel" font-family="Ubuntu" font-size="12" font-weight="400" font-style="normal">
                    <polyline fill="none" points="113.3084,10.0 113.3084,470.0"/>
                    <polyline fill="none" points="244.92579999999998,10.0 244.92579999999998,470.0"/>
                    <polyline fill="none" points="376.5428,10.0 376.5428,470.0"/>
                    <polyline fill="none" points="508.1608,10.0 508.1608,470.0"/>
                </g>
                <g fill="none" stroke="#000000" stroke-opacity="0.129412" stroke-width="1" stroke-linecap="square" stroke-linejoin="bevel" font-family="Ubuntu" font-size="12" font-weight="400" font-style="normal">
                    <polyline fill="none" points="34.33802,10.0 34.33802,470.0"/>
                    <polyline fill="none" points="60.661500000000004,10.0 60.661500000000004,470.0"/>
                    <polyline fill="none" points="73.8232,10.0 73.8232,470.0"/>
                    <polyline fill="none" points="86.985,10.0 86.985,470.0"/>
                    <polyline fill="none" points="100.1467,10.0 100.1467,470.0"/>
                    <polyline fill="none" points="126.4702,10.0 126.4702,470.0"/>
                    <polyline fill="none" points="139.6318,10.0 139.6318,470.0"/>
                    <polyline fill="none" points="152.7938,10.0 152.7938,470.0"/>
                    <polyline fill="none" points="165.9558,10.0 165.9558,470.0"/>
                    <polyline fill="none" points="192.2788,10.0 192.2788,470.0"/>
                    <polyline fill="none" points="205.44080000000002,10.0 205.44080000000002,470.0"/>
                    <polyline fill="none" points="218.60180000000003,10.0 218.60180000000003,470.0"/>
                    <polyline fill="none" points="231.7638,10.0 231.7638,470.0"/>
                    <polyline fill="none" points="258.0878,10.0 258.0878,470.0"/>
                    <polyline fill="none" points="271.2488,10.0 271.2488,470.0"/>
                    <polyline fill="none" points="284.4108,10.0 284.4108,470.0"/>
                    <polyline fill="none" points="297.5728,10.0 297.5728,470.0"/>
                    <polyline fill="none" points="323.8958,10.0 323.8958,470.0"/>
                    <polyline fill="none" points="337.0578,10.0 337.0578,470.0"/>
                    <polyline fill="none" points="350.21979999999996,10.0 350.21979999999996,470.0"/>
                    <polyline fill="none" points="363.3818,10.0 363.3818,470.0"/>
                    <polyline fill="none" points="389.7048,10.0 389.7048,470.0"/>
                    <polyline fill="none" points="402.8668,10.0 402.8668,470.0"/>
                    <polyline fill="none" points="416.0278,10.0 416.0278,470.0"/>
                    <polyline fill="none" points="429.1898,10.0 429.1898,470.0"/>
                    <polyline fill="none" points="455.5138,10.0 455.5138,470.0"/>
                    <polyline fill="none" points="468.6748,10.0 468.6748,470.0"/>
                    <polyline fill="none" points="481.8368,10.0 481.8368,470.0"/>
                    <polyline fill="none" points="494.99879999999996,10.0 494.99879999999996,470.0"/>
                    <polyline fill="none" points="521.3218,10.0 521.3218,470.0"/>
                    <polyline fill="none" points="534.4838,10.0 534.4838,470.0"/>
                    <polyline fill="none" points="547.6458,10.0 547.6458,470.0"/>
                    <polyline fill="none" points="560.8078,10.0 560.8078,470.0"/>
                    <polyline fill="none" points="587.1308,10.0 587.1308,470.0"/>
                </g>
                <g fill="none" stroke="#000000" stroke-opacity="1" stroke-width="1" stroke-linecap="square" stroke-linejoin="bevel" transform="matrix(1,0,0,1,31.4688,470)" font-family="Ubuntu" font-size="12" font-weight="400" font-style="normal">
                    <text fill="#000000" fill-opacity="1" stroke="none" xml:space="preserve" x="12.6406" y="13.3438" font-family="Ubuntu" font-size="12" font-weight="400" font-style="normal">2</text>
                    <text fill="#000000" fill-opacity="1" stroke="none" xml:space="preserve" x="144.25" y="13.3438" font-family="Ubuntu" font-size="12" font-weight="400" font-style="normal">4</text>
                    <text fill="#000000" fill-opacity="1" stroke="none" xml:space="preserve" x="275.875" y="13.3438" font-family="Ubuntu" font-size="12" font-weight="400" font-style="normal">6</text>
                    <text fill="#000000" fill-opacity="1" stroke="none" xml:space="preserve" x="407.5" y="13.3438" font-family="Ubuntu" font-size="12" font-weight="400" font-style="normal">8</text>
                    <text fill="#000000" fill-opacity="1" stroke="none" xml:space="preserve" x="535.734" y="13.3438" font-family="Ubuntu" font-size="12" font-weight="400" font-style="normal">10</text>
                    <text fill="#000000" fill-opacity="1" stroke="none" xml:space="preserve" x="78.4531" y="13.3438" font-family="Ubuntu" font-size="12" font-weight="400" font-style="normal">3</text>
                    <text fill="#000000" fill-opacity="1" stroke="none" xml:space="preserve" x="210.063" y="13.3438" font-family="Ubuntu" font-size="12" font-weight="400" font-style="normal">5</text>
                    <text fill="#000000" fill-opacity="1" stroke="none" xml:space="preserve" x="341.688" y="13.3438" font-family="Ubuntu" font-size="12" font-weight="400" font-style="normal">7</text>
                    <text fill="#000000" fill-opacity="1" stroke="none" xml:space="preserve" x="473.297" y="13.3438" font-family="Ubuntu" font-size="12" font-weight="400" font-style="normal">9</text>
                </g>
            </g>
            <g fill="none" stroke="black" stroke-width="1" fill-rule="evenodd" stroke-linecap="square" stroke-linejoin="bevel" id="AxisItem_3">
                <g fill="none" stroke="#000000" stroke-opacity="1" stroke-width="1" stroke-linecap="square" stroke-linejoin="bevel" font-family="Ubuntu" font-size="12" font-weight="400" font-style="normal">
                    <polyline fill="none" points="30.4688,9.0 30.4688,471.0"/>
                </g>
                <g fill="none" stroke="#000000" stroke-opacity="0.498039" stroke-width="1" stroke-linecap="square" stroke-linejoin="bevel" font-family="Ubuntu" font-size="12" font-weight="400" font-style="normal">
                    <polyline fill="none" points="590.5,369.054 31.4688,369.054"/>
                    <polyline fill="none" points="590.5,254.339 31.4688,254.339"/>
                    <polyline fill="none" points="590.5,139.624 31.4688,139.624"/>
                    <polyline fill="none" points="590.5,24.9095 31.4688,24.9095"/>
                </g>
                <g fill="none" stroke="#000000" stroke-opacity="0.247059" stroke-width="1" stroke-linecap="square" stroke-linejoin="bevel" font-family="Ubuntu" font-size="12" font-weight="400" font-style="normal">
                    <polyline fill="none" points="590.5,426.412 31.4688,426.412"/>
                    <polyline fill="none" points="590.5,311.697 31.4688,311.697"/>
                    <polyline fill="none" points="590.5,196.982 31.4688,196.982"/>
                    <polyline fill="none" points="590.5,82.2669 31.4688,82.2669"/>
                </g>
                <g fill="none" stroke="#000000" stroke-opacity="0.113725" stroke-width="1" stroke-linecap="square" stroke-linejoin="bevel" font-family="Ubuntu" font-size="12" font-weight="400" font-style="normal">
                    <polyline fill="none" points="590.5,460.826 31.4688,460.826"/>
                    <polyline fill="none" points="590.5,449.355 31.4688,449.355"/>
                    <polyline fill="none" points="590.5,437.883 31.4688,437.883"/>
                    <polyline fill="none" points="590.5,414.94 31.4688,414.94"/>
                    <polyline fill="none" points="590.5,403.469 31.4688,403.469"/>
                    <polyline fill="none" points="590.5,391.997 31.4688,391.997"/>
                    <polyline fill="none" points="590.5,380.526 31.4688,380.526"/>
                    <polyline fill="none" points="590.5,357.583 31.4688,357.583"/>
                    <polyline fill="none" points="590.5,346.111 31.4688,346.111"/>
                    <polyline fill="none" points="590.5,334.64 31.4688,334.64"/>
                    <polyline fill="none" points="590.5,323.168 31.4688,323.168"/>
                    <polyline fill="none" points="590.5,300.225 31.4688,300.225"/>
                    <polyline fill="none" points="590.5,288.754 31.4688,288.754"/>
                    <polyline fill="none" points="590.5,277.282 31.4688,277.282"/>
                    <polyline fill="none" points="590.5,265.81100000000004 31.4688,265.81100000000004"/>
                    <polyline fill="none" points="590.5,242.868 31.4688,242.868"/>
                    <polyline fill="none" points="590.5,231.396 31.4688,231.396"/>
                    <polyline fill="none" points="590.5,219.925 31.4688,219.925"/>
                    <polyline fill="none" points="590.5,208.453 31.4688,208.453"/>
                    <polyline fill="none" points="590.5,185.51 31.4688,185.51"/>
                    <polyline fill="none" points="590.5,174.039 31.4688,174.039"/>
                    <polyline fill="none" points="590.5,162.567 31.4688,162.567"/>
                    <polyline fill="none" points="590.5,151.096 31.4688,151.096"/>
                    <polyline fill="none" points="590.5,128.15300000000002 31.4688,128.15300000000002"/>
                    <polyline fill="none" points="590.5,116.681 31.4688,116.681"/>
                    <polyline fill="none" points="590.5,105.2099 31.4688,105.2099"/>
                    <polyline fill="none" points="590.5,93.7384 31.4688,93.7384"/>
                    <polyline fill="none" points="590.5,70.7955 31.4688,70.7955"/>
                    <polyline fill="none" points="590.5,59.324 31.4688,59.324"/>
                    <polyline fill="none" points="590.5,47.8525 31.4688,47.8525"/>
                    <polyline fill="none" points="590.5,36.381 31.4688,36.381"/>
                    <polyline fill="none" points="590.5,13.43798 31.4688,13.43798"/>
                </g>
                <g fill="none" stroke="#000000" stroke-opacity="1" stroke-width="1" stroke-linecap="square" stroke-linejoin="bevel" transform="matrix(1,0,0,1,10,10)" font-family="Ubuntu" font-size="12" font-weight="400" font-style="normal">
                    <text fill="#000000" fill-opacity="1" stroke="none" xml:space="preserve" x="9.70313" y="363.672" font-family="Ubuntu" font-size="12" font-weight="400" font-style="normal">2</text>
                    <text fill="#000000" fill-opacity="1" stroke="none" xml:space="preserve" x="9.70313" y="248.953" font-family="Ubuntu" font-size="12" font-weight="400" font-style="normal">4</text>
                    <text fill="#000000" fill-opacity="1" stroke="none" xml:space="preserve" x="9.70313" y="134.234" font-family="Ubuntu" font-size="12" font-weight="400" font-style="normal">6</text>
                    <text fill="#000000" fill-opacity="1" stroke="none" xml:space="preserve" x="9.70313" y="19.5313" font-family="Ubuntu" font-size="12" font-weight="400" font-style="normal">8</text>
                    <text fill="#000000" fill-opacity="1" stroke="none" xml:space="preserve" x="9.70313" y="421.031" font-family="Ubuntu" font-size="12" font-weight="400" font-style="normal">1</text>
                    <text fill="#000000" fill-opacity="1" stroke="none" xml:space="preserve" x="9.70313" y="306.313" font-family="Ubuntu" font-size="12" font-weight="400" font-style="normal">3</text>
                    <text fill="#000000" fill-opacity="1" stroke="none" xml:space="preserve" x="9.70313" y="191.594" font-family="Ubuntu" font-size="12" font-weight="400" font-style="normal">5</text>
                    <text fill="#000000" fill-opacity="1" stroke="none" xml:space="preserve" x="9.70313" y="76.8906" font-family="Ubuntu" font-size="12" font-weight="400" font-style="normal">7</text>
                </g>
            </g>
            <g fill="none" stroke="black" stroke-width="1" fill-rule="evenodd" stroke-linecap="square" stroke-linejoin="bevel" id="AxisItem_4">
                <g fill="none" stroke="#000000" stroke-opacity="1" stroke-width="1" stroke-linecap="square" stroke-linejoin="bevel" font-family="Ubuntu" font-size="12" font-weight="400" font-style="normal">
                    <polyline fill="none" points="591.0,9.0 591.0,471.0"/>
                </g>
                

            </g>
        </g>
        <g fill="none" stroke="black" stroke-width="1" fill-rule="evenodd" stroke-linecap="square" stroke-linejoin="bevel" id="QGraphicsRectItem_2">
            <g fill="none" stroke="none" transform="matrix(1,0,0,1,0,0)" font-family="Ubuntu" font-size="12" font-weight="400" font-style="normal">
                <rect x="0" y="0" width="0" height="0"/>
            </g>
        </g>
    </g>
</g>

</svg>
